<?xml version="1.0" encoding="UTF-8" standalone="no"?>
<!-- Created with Inkscape (http://www.inkscape.org/) -->

<svg
   xmlns:dc="http://purl.org/dc/elements/1.1/"
   xmlns:cc="http://creativecommons.org/ns#"
   xmlns:rdf="http://www.w3.org/1999/02/22-rdf-syntax-ns#"
   xmlns:svg="http://www.w3.org/2000/svg"
   xmlns="http://www.w3.org/2000/svg"
   xmlns:sodipodi="http://sodipodi.sourceforge.net/DTD/sodipodi-0.dtd"
   xmlns:inkscape="http://www.inkscape.org/namespaces/inkscape"
   width="1600"
   height="500"
   viewBox="0 0 423.33332 132.29167"
   version="1.1"
   id="svg8"
   inkscape:version="0.92.4 (unknown)"
   sodipodi:docname="header.svg"
   inkscape:export-filename="/home/javier/Documents/RAS-site/images/header.png"
   inkscape:export-xdpi="96"
   inkscape:export-ydpi="96">
  <defs
     id="defs2" />
  <sodipodi:namedview
     id="base"
     pagecolor="#ffffff"
     bordercolor="#666666"
     borderopacity="1.0"
     inkscape:pageopacity="0.0"
     inkscape:pageshadow="2"
     inkscape:zoom="2"
     inkscape:cx="1130.7424"
     inkscape:cy="254.36678"
     inkscape:document-units="mm"
     inkscape:current-layer="layer2"
     showgrid="false"
     units="px"
     inkscape:snap-page="true"
     inkscape:window-width="1920"
     inkscape:window-height="1049"
     inkscape:window-x="0"
     inkscape:window-y="31"
     inkscape:window-maximized="1">
    <sodipodi:guide
       position="0,0"
       orientation="0,1600"
       id="guide9095"
       inkscape:locked="false" />
    <sodipodi:guide
       position="423.33333,0"
       orientation="-500,0"
       id="guide9097"
       inkscape:locked="false" />
    <sodipodi:guide
       position="423.33333,132.29167"
       orientation="0,-1600"
       id="guide9099"
       inkscape:locked="false" />
    <sodipodi:guide
       position="0,132.29167"
       orientation="500,0"
       id="guide9101"
       inkscape:locked="false" />
  </sodipodi:namedview>
  <metadata
     id="metadata5">
    <rdf:RDF>
      <cc:Work
         rdf:about="">
        <dc:format>image/svg+xml</dc:format>
        <dc:type
           rdf:resource="http://purl.org/dc/dcmitype/StillImage" />
        <dc:title></dc:title>
      </cc:Work>
    </rdf:RDF>
  </metadata>
  <g
     inkscape:label="Layer 1"
     inkscape:groupmode="layer"
     id="layer1"
     transform="translate(0,-164.70832)"
     style="display:inline"
     sodipodi:insensitive="true">
    <rect
       style="fill:#373748;fill-opacity:1;stroke-width:0.26458332"
       id="rect53"
       width="423.33331"
       height="132.29167"
       x="0"
       y="164.70831" />
  </g>
  <g
     inkscape:groupmode="layer"
     id="layer2"
     inkscape:label="Layer 2"
     style="display:inline"
     sodipodi:insensitive="true">
    <rect
       style="display:inline;fill:#ffffff;fill-opacity:1;stroke:#fffcfc;stroke-width:7.99748898;stroke-linecap:butt;stroke-linejoin:round;stroke-miterlimit:4;stroke-dasharray:none;stroke-opacity:1;paint-order:stroke markers fill"
       id="rect9071"
       width="112.22118"
       height="50.061169"
       x="266.65836"
       y="40.364826" />
    <path
       style="display:inline;fill:#0743a6;stroke-width:0.08767279"
       d="m 269.27604,90.309968 c -0.57911,-0.130552 -1.01848,-0.40793 -1.30233,-0.822174 -0.35702,-0.521044 -0.43849,-1.069335 -0.43988,-2.960431 -0.001,-1.984031 -0.0454,-2.177495 -0.50483,-2.222104 -0.15562,-0.01511 -0.28294,-0.06443 -0.28294,-0.109591 0,-0.04736 0.52874,-0.08063 1.24934,-0.07861 l 1.24934,0.0035 -0.23728,0.128796 c -0.15851,0.08604 -0.25569,0.22694 -0.29274,0.424431 -0.0305,0.1626 -0.0416,1.11897 -0.0246,2.125269 l 0.0309,1.829632 0.18758,0.350691 c 0.353,0.659942 0.78194,0.922022 1.50353,0.918639 0.53966,-0.0025 1.0748,-0.254066 1.37339,-0.64554 l 0.24092,-0.315862 0.0785,-0.986855 c 0.0432,-0.542771 0.053,-1.550549 0.0219,-2.239507 l -0.0566,-1.252652 -0.15762,-0.08436 c -0.0867,-0.04639 -0.24146,-0.08436 -0.34391,-0.08436 -0.10246,0 -0.1619,-0.03945 -0.1321,-0.08767 0.0313,-0.05062 0.48739,-0.08655 1.07916,-0.08501 0.79151,0.0021 0.98504,0.02451 0.84964,0.09857 -0.36584,0.200099 -0.39447,0.32233 -0.39609,1.690893 -0.002,1.861794 -0.11103,2.775879 -0.38648,3.245898 -0.2633,0.449289 -0.66307,0.804907 -1.14623,1.019641 -0.47235,0.209927 -1.54049,0.278523 -2.16052,0.138748 z m 84.44143,-0.02363 c -0.36165,-0.07369 -0.94003,-0.269447 -1.28528,-0.435022 -1.04077,-0.499127 -1.53675,-1.233407 -1.66317,-2.462275 -0.043,-0.417904 -0.0134,-0.676384 0.1322,-1.155837 0.10316,-0.339656 0.31709,-0.787854 0.47539,-0.995994 0.39802,-0.523332 1.03152,-0.915623 1.73814,-1.07634 0.69328,-0.157685 1.96837,-0.174911 2.94162,-0.03974 0.37719,0.05239 0.69432,0.10363 0.7047,0.113873 0.0104,0.01024 -0.005,0.363213 -0.0351,0.784376 -0.0351,0.496598 -0.0879,0.754653 -0.15041,0.734175 -0.053,-0.01737 -0.10869,-0.135505 -0.12377,-0.262528 -0.0151,-0.127023 -0.13654,-0.347766 -0.26991,-0.490538 -0.50381,-0.539334 -2.03549,-0.734163 -2.86992,-0.365055 -0.23384,0.103437 -0.51826,0.274909 -0.63205,0.381049 -0.31004,0.289199 -0.52358,0.765631 -0.62349,1.391044 -0.21973,1.375461 0.39181,2.632167 1.55934,3.204413 l 0.49628,0.243241 0.75144,4.38e-4 0.75144,4.39e-4 0.37329,-0.246911 c 0.2168,-0.143401 0.42602,-0.373116 0.49907,-0.547955 0.20004,-0.478769 0.32881,-0.379761 0.25671,0.19737 -0.0928,0.742468 -0.16879,0.880805 -0.54555,0.992604 -0.555,0.164692 -1.76117,0.181761 -2.48093,0.03511 z M 278.8339,89.758305 c -0.3556,-0.323045 -1.08052,-1.010419 -1.61094,-1.527499 -1.09871,-1.071077 -1.56787,-1.487035 -1.67736,-1.487156 -0.10199,-8.7e-5 -0.0392,2.891804 0.0671,3.090429 0.046,0.08587 0.21008,0.211506 0.36472,0.279194 l 0.28116,0.123069 -0.9644,0.0048 -0.9644,0.0048 0.23903,-0.148227 c 0.13147,-0.08152 0.25969,-0.202065 0.28494,-0.267867 0.0253,-0.0658 0.072,-1.163513 0.1039,-2.439359 0.0319,-1.275847 0.0917,-2.340593 0.13303,-2.366102 0.0413,-0.02551 0.97177,0.822499 2.06776,1.884463 1.096,1.061965 2.01565,1.903088 2.04367,1.869164 0.028,-0.03392 0.0281,-0.784972 3.5e-4,-1.668996 l -0.0507,-1.607322 -0.17018,-0.124222 c -0.0936,-0.06832 -0.26361,-0.124222 -0.37779,-0.124222 -0.11607,0 -0.18371,-0.03865 -0.15341,-0.08767 0.03,-0.04861 0.42976,-0.08767 0.89718,-0.08767 h 0.843 l -0.19062,0.202914 -0.19063,0.202914 -0.011,1.134096 c -0.0201,2.066089 -0.11465,3.660614 -0.21918,3.695165 -0.0543,0.01794 -0.38962,-0.231691 -0.74521,-0.554735 z m 3.2549,0.499551 c 0,-0.05457 0.0933,-0.134677 0.20723,-0.17801 0.11397,-0.04333 0.23233,-0.144215 0.26301,-0.224182 0.0825,-0.214978 0.0652,-4.276456 -0.0188,-4.408823 -0.0395,-0.06232 -0.18688,-0.147698 -0.32743,-0.189728 -0.18482,-0.05527 0.007,-0.0785 0.69191,-0.08395 l 0.94745,-0.0075 -0.13648,0.194854 c -0.11401,0.162771 -0.13648,0.529923 -0.13648,2.229948 0,1.119302 0.0385,2.136296 0.0855,2.259985 0.0599,0.157482 0.1503,0.224889 0.30168,0.224889 0.1189,0 0.24056,0.03945 0.27036,0.08767 0.0349,0.05641 -0.28894,0.08767 -0.90822,0.08767 -0.52932,0 -1.02481,0.02395 -1.10108,0.05322 -0.0763,0.02927 -0.13868,0.0086 -0.13868,-0.046 z m 5.70668,-0.116802 c -0.0415,-0.108495 -0.48813,-1.124403 -0.99259,-2.257574 -0.50446,-1.133171 -0.94107,-2.127571 -0.97025,-2.209777 -0.0292,-0.08221 -0.21277,-0.230956 -0.408,-0.330554 -0.19523,-0.0996 -0.35496,-0.200014 -0.35496,-0.223144 0,-0.02313 0.46159,-0.04205 1.02577,-0.04205 0.79782,0 1.00239,0.02338 0.92056,0.105207 -0.0579,0.05786 -0.10521,0.197797 -0.10521,0.310961 0,0.199357 1.17318,3.151973 1.30782,3.291468 0.0729,0.07552 0.55064,-0.929654 1.15204,-2.423866 l 0.38312,-0.951885 -0.16699,-0.122106 -0.16699,-0.122107 h 0.72119 0.72119 l -0.2972,0.260949 c -0.16347,0.143522 -0.36852,0.447669 -0.45567,0.675882 -0.0872,0.228213 -0.47242,1.067515 -0.85615,1.865116 -0.38372,0.797601 -0.78939,1.657311 -0.90148,1.910466 -0.21895,0.494474 -0.42967,0.594121 -0.5562,0.263018 z m 4.14628,0.09328 c -0.0204,-0.03308 0.0722,-0.11252 0.20578,-0.176527 l 0.24281,-0.116376 v -2.234475 -2.234475 l -0.28304,-0.131509 c -0.15567,-0.07233 -0.28389,-0.161099 -0.28493,-0.197264 -0.001,-0.03616 0.76743,-0.06575 1.70772,-0.06575 h 1.70962 l -10e-4,0.372609 c -0.002,0.548375 -0.10118,0.64569 -0.33535,0.328961 l -0.1946,-0.263206 h -0.6017 c -0.41433,0 -0.61539,0.03567 -0.64566,0.114532 -0.08,0.208496 -0.0426,1.505387 0.0467,1.617005 0.11363,0.142099 0.8084,0.134265 1.22305,-0.01379 l 0.32399,-0.115685 0.0517,0.134754 c 0.0633,0.16485 -0.0362,0.879374 -0.13058,0.937676 -0.0375,0.02318 -0.0927,-0.05561 -0.12273,-0.175088 -0.0652,-0.25977 -0.28327,-0.327731 -0.93327,-0.290846 l -0.47751,0.0271 -0.006,0.91492 c -0.005,0.771661 0.0193,0.939827 0.15343,1.073991 0.10703,0.10703 0.28957,0.159072 0.55795,0.159072 0.45106,0 0.84152,-0.170572 1.04038,-0.454492 0.0742,-0.105861 0.16414,-0.163149 0.19998,-0.127307 0.0957,0.09571 0.0298,0.696232 -0.0898,0.818004 -0.0702,0.07151 -0.61259,0.113192 -1.71137,0.131509 -0.8847,0.01475 -1.62521,-2.63e-4 -1.64558,-0.03334 z m 9.40173,-0.0042 c -0.3957,-0.104712 -0.78798,-0.47363 -1.44849,-1.362224 -0.46912,-0.631123 -0.67073,-0.763843 -1.0737,-0.706804 l -0.20618,0.02919 0.005,0.701382 c 0.006,0.948396 0.0743,1.183583 0.3426,1.183583 0.11678,0 0.23672,0.03945 0.26652,0.08767 0.0349,0.05644 -0.29345,0.08767 -0.92175,0.08767 h -0.97594 l 0.18171,-0.231005 0.1817,-0.231006 -10e-4,-2.114241 c -7e-4,-1.162834 -0.0307,-2.16043 -0.0666,-2.216882 -0.0359,-0.05645 -0.17339,-0.129771 -0.30551,-0.162931 -0.13212,-0.03316 -0.24022,-0.100021 -0.24022,-0.148578 0,-0.0571 0.51878,-0.07634 1.46852,-0.05447 l 1.46852,0.03381 0.34265,0.177997 c 0.19229,0.09989 0.41352,0.310111 0.50412,0.479058 0.29843,0.556444 0.15858,1.205347 -0.36862,1.710436 -0.14243,0.136461 -0.25897,0.315879 -0.25897,0.398706 0,0.162327 1.37496,1.754445 1.69242,1.959716 0.1059,0.06848 0.30104,0.151177 0.43364,0.183781 0.13261,0.0326 0.2411,0.08985 0.2411,0.127221 0,0.178032 -0.70177,0.215842 -1.26074,0.06793 z M 299.8689,87.50244 c 0.17698,-0.176982 0.23248,-0.333155 0.26046,-0.732907 0.0298,-0.4258 0.002,-0.557448 -0.1721,-0.813579 -0.24549,-0.361249 -0.5332,-0.524246 -0.92852,-0.526022 -0.37404,-0.0017 -0.43094,0.154669 -0.45047,1.237662 -0.0126,0.696847 0.0113,0.870906 0.13628,0.995932 0.22214,0.222141 0.86016,0.133108 1.15435,-0.161086 z m 3.67778,2.773077 c -0.40507,-0.06136 -0.46438,-0.32528 -0.27728,-1.23396 0.0523,-0.254158 0.21156,-0.166124 0.21156,0.116968 0,0.116943 0.11084,0.336674 0.24631,0.48829 0.19758,0.221126 0.33279,0.283976 0.68345,0.317669 l 0.43714,0.042 0.27626,-0.232464 c 0.15195,-0.127855 0.30214,-0.313975 0.33376,-0.413599 0.0947,-0.298253 -0.20561,-0.821395 -0.64969,-1.131925 -0.97209,-0.67974 -1.4149,-1.281883 -1.4149,-1.923991 0,-0.4764 0.18724,-0.814468 0.58966,-1.064667 l 0.3309,-0.205728 h 0.77489 0.77488 l 0.17404,0.214933 c 0.13405,0.165537 0.16066,0.286277 0.1158,0.525369 -0.032,0.17074 -0.0798,0.345314 -0.10614,0.387944 -0.0263,0.04263 -0.0994,-0.04506 -0.16242,-0.19487 -0.1348,-0.320596 -0.59274,-0.62573 -0.93977,-0.626193 -0.3431,-4.38e-4 -0.73103,0.219455 -0.79088,0.448339 -0.0973,0.371982 0.16614,0.745368 0.97721,1.385156 0.55863,0.440657 0.84303,0.733248 0.97231,1.000299 0.29917,0.618017 0.21862,1.180146 -0.2393,1.669906 -0.12954,0.138544 -0.36248,0.306219 -0.51765,0.37261 -0.26545,0.113582 -1.22817,0.144553 -1.80014,0.05791 z m 9.55112,-0.0027 -0.94774,-0.02824 0.2067,-0.245652 0.20671,-0.245652 0.0227,-1.930019 c 0.0125,-1.06151 -0.003,-2.034232 -0.0354,-2.161604 -0.0434,-0.173006 -0.14447,-0.257455 -0.39949,-0.333861 -0.72075,-0.21594 -0.34112,-0.271071 1.56551,-0.227351 2.12811,0.0488 2.55631,0.13177 3.19528,0.619125 0.23122,0.176361 0.47557,0.481991 0.63576,0.795219 0.21462,0.41967 0.25925,0.611312 0.25483,1.094357 -0.009,1.014109 -0.54484,1.8776 -1.45262,2.342119 -0.43341,0.221782 -1.35823,0.395346 -1.95379,0.366674 -0.19288,-0.0093 -0.77717,-0.02959 -1.29842,-0.04512 z m 2.62182,-0.529208 c 0.45954,-0.235589 0.87739,-0.712166 0.99466,-1.134457 0.0506,-0.182143 0.0922,-0.570003 0.0925,-0.861911 9.6e-4,-1.044789 -0.66896,-1.875823 -1.75872,-2.181675 -0.26838,-0.07532 -0.6911,-0.13695 -0.9394,-0.13695 -0.36118,0 -0.47014,0.03494 -0.54495,0.174721 -0.0624,0.116565 -0.077,0.780465 -0.0439,1.994556 0.0273,1.00091 0.0679,1.905289 0.0902,2.009733 0.0223,0.104444 0.14918,0.231937 0.28189,0.283318 0.38205,0.147926 1.41401,0.06474 1.82769,-0.147336 z m 2.69974,0.491151 c -0.0462,-0.07475 0.0327,-0.119755 0.33752,-0.192603 0.16053,-0.03836 0.29673,-0.168503 0.41122,-0.392917 0.0942,-0.184555 0.53307,-1.199833 0.97537,-2.256172 0.4423,-1.056338 0.85992,-2.02911 0.92804,-2.161715 0.17052,-0.331931 0.41743,-0.311673 0.53428,0.04384 0.15072,0.458562 1.75234,4.09201 1.90944,4.331766 0.0789,0.120357 0.28471,0.302219 0.45745,0.404139 l 0.31408,0.185309 -0.1833,0.08179 c -0.10425,0.04652 -0.50715,0.05481 -0.93419,0.01924 -0.63554,-0.05294 -0.73944,-0.08301 -0.67636,-0.195743 0.0485,-0.08657 -0.0164,-0.367697 -0.18514,-0.803107 -0.14283,-0.368452 -0.30462,-0.698898 -0.35953,-0.734325 -0.0549,-0.03543 -0.44644,-0.06502 -0.87008,-0.06575 l -0.77025,-0.0013 -0.15917,0.372609 c -0.0875,0.204935 -0.21383,0.524467 -0.28065,0.710071 l -0.1215,0.337462 0.20581,0.166656 c 0.12585,0.101904 0.15946,0.168573 0.0865,0.171586 -0.87602,0.0362 -1.59001,0.02703 -1.61955,-0.02079 z m 3.38521,-2.202872 c 0,-0.0148 -0.13437,-0.360013 -0.29861,-0.767137 -0.16424,-0.407124 -0.33191,-0.724414 -0.37261,-0.705089 -0.0559,0.02654 -0.6354,1.358854 -0.64254,1.477219 -7.1e-4,0.01206 0.29457,0.02192 0.65622,0.02192 0.36165,0 0.65754,-0.01211 0.65754,-0.02691 z m 4.16446,2.218731 c -0.4822,-0.02954 -0.82562,-0.06136 -0.76315,-0.07069 0.0625,-0.0093 0.21041,-0.113818 0.32877,-0.232177 l 0.2152,-0.215196 v -2.094544 -2.094544 l -0.16033,-0.145097 c -0.0882,-0.0798 -0.24599,-0.145098 -0.35069,-0.145098 -0.1047,0 -0.19036,-0.04338 -0.19036,-0.09639 0,-0.06831 0.54278,-0.08471 1.86304,-0.05628 1.45603,0.03135 1.97368,0.07437 2.36944,0.196928 0.99359,0.307685 1.72662,1.247295 1.72841,2.215508 10e-4,0.566479 -0.26539,1.354998 -0.59816,1.770257 -0.13654,0.17038 -0.45403,0.434282 -0.70555,0.58645 -0.73977,0.447568 -1.45618,0.520593 -3.73662,0.380877 z m 2.78484,-0.438151 c 0.55227,-0.20663 0.96406,-0.6091 1.1215,-1.096122 0.14587,-0.451238 0.14529,-1.307124 -10e-4,-1.74608 -0.15964,-0.478373 -0.7141,-1.047856 -1.24082,-1.274447 -0.54744,-0.2355 -1.59229,-0.341616 -1.78543,-0.181329 -0.11214,0.09307 -0.13348,0.409346 -0.13248,1.963253 7.1e-4,1.018772 0.0261,1.945394 0.0566,2.059162 0.11943,0.446139 1.14487,0.588719 1.98186,0.275563 z m 6.67041,0.416233 c -0.0224,-0.03617 0.0179,-0.06575 0.0895,-0.06575 0.0717,0 0.21209,-0.103953 0.31203,-0.231006 l 0.18171,-0.231005 V 87.614901 85.52884 l -0.13778,-0.137772 c -0.0758,-0.07578 -0.21618,-0.137772 -0.31202,-0.137772 -0.0958,0 -0.14988,-0.03945 -0.12008,-0.08767 0.07,-0.113286 2.02008,-0.111755 3.11239,0.0024 1.17582,0.122931 1.57284,0.274538 2.04733,0.781804 0.28272,0.302255 0.43972,0.570845 0.54464,0.931739 0.39335,1.353079 -0.27303,2.673974 -1.62062,3.212375 l -0.48915,0.195434 -1.78362,0.0025 c -0.98098,0.0014 -1.80196,-0.02706 -1.82438,-0.06322 z m 3.58975,-0.379953 c 0.44771,-0.152553 0.87973,-0.579606 1.09476,-1.08219 0.0799,-0.186815 0.13453,-0.578608 0.13529,-0.970777 9.5e-4,-0.497013 -0.0433,-0.743163 -0.18114,-1.008237 -0.24657,-0.474058 -0.67979,-0.872775 -1.19607,-1.100819 -0.46117,-0.203701 -1.30004,-0.316398 -1.6679,-0.22407 l -0.227,0.05697 v 1.921424 c 0,1.056783 0.0379,2.021092 0.0842,2.142909 0.0537,0.141153 0.18881,0.25165 0.37261,0.304655 0.4498,0.129717 1.13835,0.1124 1.58524,-0.03987 z m 3.86177,0.379334 c -0.0225,-0.03651 0.0208,-0.08582 0.0962,-0.109591 0.0754,-0.02377 0.19624,-0.06171 0.26857,-0.0843 0.10266,-0.03207 0.13556,-0.219592 0.14996,-0.85481 0.041,-1.809247 -0.0156,-3.685495 -0.11477,-3.805013 -0.0553,-0.0666 -0.21402,-0.121096 -0.35278,-0.121096 -0.13875,0 -0.25228,-0.03945 -0.25228,-0.08767 0,-0.05553 0.64446,-0.08767 1.75804,-0.08767 h 1.75803 l -0.0265,0.453391 c -0.0155,0.264316 -0.0722,0.468451 -0.13609,0.489506 -0.0603,0.01986 -0.10959,-0.02353 -0.10959,-0.09644 0,-0.289363 -0.25779,-0.408095 -0.88606,-0.408095 h -0.61051 l 0.025,0.898646 0.025,0.898646 0.36978,0.02682 c 0.34359,0.02492 0.7088,-0.04308 1.11169,-0.207007 l 0.16637,-0.06769 -0.0636,0.56177 c -0.035,0.308974 -0.0797,0.577896 -0.0994,0.597606 -0.0197,0.01971 -0.11741,-0.06787 -0.21711,-0.19462 -0.21173,-0.269166 -0.75837,-0.457866 -1.08725,-0.375321 l -0.22989,0.0577 0.0247,1.02756 0.0247,1.027561 0.33823,0.110656 c 0.25414,0.08315 0.42555,0.08714 0.68954,0.01606 0.19322,-0.05203 0.4472,-0.19049 0.5644,-0.307689 0.1172,-0.117198 0.23103,-0.213089 0.25294,-0.213089 0.0219,0 0.0399,0.152981 0.0399,0.339957 0,0.186975 -0.0502,0.381649 -0.11164,0.432608 -0.12933,0.107331 -3.3023,0.184288 -3.36552,0.08163 z m 27.41174,-0.0076 c 4e-5,-0.04068 0.0742,-0.09334 0.16474,-0.117021 0.0906,-0.02368 0.20893,-0.140204 0.26302,-0.258937 0.0638,-0.13995 0.0984,-0.939059 0.0984,-2.272061 v -2.056182 l -0.17534,-0.175346 -0.17535,-0.175346 0.94248,0.01017 c 0.51837,0.0056 0.86358,0.02957 0.76714,0.05327 -0.38886,0.09558 -0.39453,0.127627 -0.39453,2.232551 0,1.218919 0.0358,2.078322 0.0908,2.181084 l 0.0908,0.169582 h 0.73769 0.73769 l 0.27672,-0.284936 0.27671,-0.284937 -0.0539,0.434822 c -0.0297,0.239152 -0.0831,0.463255 -0.11885,0.498005 -0.0927,0.09026 -3.52818,0.134353 -3.52807,0.04528 z m 5.03107,0.01381 c -0.0204,-0.03308 0.0722,-0.112342 0.20576,-0.17613 l 0.24281,-0.115978 0.0562,-0.525253 c 0.0309,-0.288889 0.0605,-1.264993 0.0657,-2.169118 l 0.01,-1.643862 -0.17535,-0.175345 c -0.0964,-0.09644 -0.25425,-0.175346 -0.35069,-0.175346 -0.0964,0 -0.17535,-0.03945 -0.17535,-0.08767 0,-0.05549 0.6364,-0.08767 1.73386,-0.08767 h 1.73386 l -0.0298,0.372609 c -0.0491,0.614086 -0.0812,0.648705 -0.35664,0.384804 -0.29844,-0.285923 -0.74585,-0.425161 -1.13286,-0.352556 l -0.28854,0.05413 0.0249,0.888335 0.0249,0.888335 0.33247,0.02743 c 0.18286,0.01509 0.52632,-0.0294 0.76326,-0.09885 0.23693,-0.06946 0.45227,-0.104814 0.47851,-0.07857 0.11957,0.11958 -0.004,1.07056 -0.1386,1.07056 -0.0422,0 -0.0767,-0.07752 -0.0767,-0.172261 0,-0.09474 -0.0763,-0.213102 -0.16958,-0.263018 -0.0933,-0.04992 -0.40889,-0.09076 -0.70139,-0.09076 h -0.53179 v 0.994164 0.994165 l 0.22331,0.101745 c 0.27653,0.125997 0.7378,0.130896 1.06415,0.0113 0.13575,-0.04975 0.33383,-0.19615 0.44019,-0.325347 0.10636,-0.129196 0.2174,-0.210886 0.24675,-0.181532 0.0745,0.07446 -0.0422,0.648283 -0.16409,0.806829 -0.0814,0.10595 -0.40843,0.13618 -1.70922,0.158018 -0.88468,0.01485 -1.62519,-6.4e-5 -1.64557,-0.03315 z m -66.92134,-0.209931 0.21255,-0.226246 v -2.106693 -2.106693 l -0.30354,-0.253409 -0.30355,-0.253409 1.00493,0.0019 1.00492,0.0019 -0.19881,0.153023 -0.19881,0.153022 0.0235,2.230677 0.0235,2.230676 0.2979,0.200699 0.29791,0.200699 h -1.03649 -1.03648 l 0.21254,-0.226245 z m 50.43712,0.114306 c 0.0842,-0.06157 0.18943,-0.268693 0.23385,-0.460282 0.0444,-0.191589 0.0817,-1.203623 0.0829,-2.248964 0.002,-1.612842 -0.0188,-1.921482 -0.13568,-2.038393 -0.0758,-0.07577 -0.23592,-0.137771 -0.35586,-0.137771 -0.12936,0 -0.19505,-0.03728 -0.16147,-0.09164 0.035,-0.05667 0.42203,-0.08429 1.01433,-0.07238 l 0.95769,0.01926 -0.17626,0.187619 c -0.14622,0.155642 -0.17626,0.307072 -0.17626,0.888511 0,0.466425 0.0416,0.757824 0.12429,0.871077 l 0.12428,0.170185 h 1.25656 1.25657 l 0.0253,-0.868999 c 0.0139,-0.477949 -0.012,-0.906301 -0.0576,-0.951894 -0.0456,-0.04559 -0.21477,-0.114075 -0.37596,-0.152183 -0.20424,-0.04829 0.007,-0.07201 0.69823,-0.07826 l 0.99129,-0.009 -0.13648,0.194854 c -0.11381,0.162493 -0.13628,0.522858 -0.13528,2.169902 8.8e-4,1.086276 0.0246,2.06238 0.0532,2.169119 0.0286,0.10674 0.16616,0.244592 0.30565,0.30634 0.1395,0.06175 0.25363,0.142087 0.25363,0.178536 0,0.03645 -0.47646,0.06627 -1.0588,0.06627 h -1.0588 l 0.27236,-0.229178 0.27237,-0.229178 -0.0245,-1.063996 -0.0245,-1.063995 -1.18359,-0.02525 c -0.65097,-0.01389 -1.27235,-0.0033 -1.38084,0.02359 l -0.19727,0.04884 v 0.957023 c 0,0.526363 0.0385,1.058224 0.0855,1.181912 0.0471,0.123727 0.1555,0.225494 0.2411,0.226232 0.0856,7.01e-4 0.21478,0.03959 0.28711,0.08633 0.0888,0.05739 -0.22261,0.08542 -0.95923,0.08633 -0.90607,0.0011 -1.06483,-0.01761 -0.93767,-0.110596 z m 7.85377,-0.102044 0.20102,-0.213982 0.0243,-2.113427 0.0244,-2.113428 -0.20476,-0.243335 -0.20475,-0.243336 0.78371,-0.0201 c 0.43105,-0.01105 0.78247,0.01151 0.78094,0.05015 -0.001,0.03864 -0.0607,0.146836 -0.13151,0.240438 -0.10463,0.138325 -0.12849,0.54863 -0.12752,2.191819 8.8e-4,1.1119 0.0243,2.107743 0.0525,2.212984 0.0301,0.112187 0.18374,0.246333 0.37141,0.324256 l 0.3201,0.132906 -1.04544,0.0045 -1.04544,0.0045 0.20103,-0.213983 z m -89.85973,-9.283857 -0.30685,-0.19 -3.94528,-0.04416 -3.94527,-0.04416 -0.26484,-0.144961 c -0.3613,-0.197757 -0.72969,-0.579165 -0.91676,-0.949149 -0.0856,-0.169402 -0.20004,-0.517073 -0.2542,-0.772601 -0.0699,-0.329913 -0.0985,-3.727791 -0.0985,-11.721062 0,-6.80412 0.0321,-11.276297 0.0811,-11.306603 0.0569,-0.03519 17.76983,-0.07935 20.01912,-0.04991 l 0.15469,0.002 -0.0232,11.594727 -0.0232,11.594727 -0.24574,0.500429 c -0.29762,0.606063 -0.79251,1.021833 -1.40559,1.180863 -0.33529,0.08697 -1.33818,0.116 -4.00781,0.116 h -3.56062 l -0.4313,0.218815 c -0.23722,0.120348 -0.45104,0.215712 -0.47515,0.211919 -0.0241,-0.0038 -0.18192,-0.0924 -0.35069,-0.196897 z m 0.84367,-0.4276 0.42759,-0.193763 3.59458,-0.02697 c 2.0512,-0.01539 3.73405,-0.06495 3.91941,-0.115427 0.41304,-0.112482 0.82076,-0.45465 1.02965,-0.864108 0.0898,-0.175946 0.20803,-0.555648 0.26283,-0.843782 0.0719,-0.378272 0.0925,-3.557676 0.074,-11.439142 l -0.0256,-10.915263 h -9.68784 -9.68785 l -0.0223,11.176606 -0.0222,11.176605 0.13418,0.461567 c 0.16523,0.568387 0.53939,1.008884 1.02927,1.211762 l 0.37149,0.15385 3.68226,0.01038 3.68226,0.01038 0.35069,0.184092 c 0.19288,0.10125 0.37526,0.189239 0.4053,0.195532 0.03,0.0063 0.24702,-0.07575 0.4822,-0.182322 z m -1.15052,-0.646793 c -0.2545,-0.0801 -1.26695,-0.112217 -3.69109,-0.117107 -2.24303,-0.0045 -3.43831,-0.03946 -3.63842,-0.106339 -0.38122,-0.127407 -0.7685,-0.48007 -0.92253,-0.840065 -0.0978,-0.228645 -0.12071,-1.237975 -0.12071,-5.324971 v -5.04285 l 3.00279,-0.02307 3.00279,-0.02307 v -0.219182 -0.219182 l -3.00279,-0.02307 -3.00279,-0.02307 -10e-4,-0.196112 c -0.0164,-2.473595 0.0135,-10.977433 0.0386,-11.002583 0.059,-0.05897 8.63128,-0.03826 8.7273,0.02108 0.06,0.03708 0.0903,1.498679 0.0903,4.352436 v 4.296616 l 0.2411,-0.02774 0.2411,-0.02774 0.0227,-4.317885 c 0.0177,-3.36268 0.0468,-4.319058 0.13151,-4.323188 0.11555,-0.0056 8.44882,-0.0038 8.63495,0.0019 0.0865,0.0026 0.10959,1.185809 0.10959,5.614417 v 5.611058 h -3.0101 c -1.65556,0 -3.03075,0.02065 -3.056,0.0459 -0.0252,0.02524 -0.0273,0.143089 -0.005,0.26188 l 0.0413,0.215982 2.99279,0.02306 2.99279,0.02306 v 5.041185 5.041186 l -0.21918,0.390046 c -0.12055,0.214524 -0.35727,0.470967 -0.52604,0.569873 l -0.30685,0.179827 -3.63842,0.04384 c -2.68109,0.0323 -3.68881,0.07267 -3.82992,0.153427 -0.10533,0.06027 -0.21346,0.109591 -0.24029,0.109591 -0.0268,0 -0.059,-1.982501 -0.0715,-4.405558 l -0.0227,-4.405558 -0.2411,-0.02774 -0.2411,-0.02774 v 4.384289 c 0,2.411359 -0.0296,4.399863 -0.0658,4.418897 -0.0362,0.01904 -0.22356,-0.01506 -0.41644,-0.07576 z m 0.21918,-4.457426 v -4.24591 l -0.462,-0.134307 c -0.2541,-0.07387 -0.64619,-0.256306 -0.8713,-0.405416 -0.45449,-0.301038 -0.94057,-0.974455 -1.13822,-1.576866 L 274.1398,68.46392 h -2.88589 -2.8859 v 4.868811 4.86881 l 0.16968,0.376148 c 0.11963,0.265206 0.27478,0.432408 0.52603,0.566902 l 0.35636,0.190756 3.55075,0.04747 c 1.95291,0.02611 3.60006,0.0557 3.66034,0.06576 0.0864,0.01442 0.10959,-0.879596 0.10959,-4.227626 z m -1.84113,2.580268 c -0.16877,-0.146997 -0.35617,-0.307351 -0.41644,-0.356343 -0.0634,-0.05155 -0.10959,-0.290781 -0.10959,-0.567821 v -0.478743 h -2.18274 -2.18274 l -0.27936,-0.318179 c -0.19688,-0.224228 -0.26436,-0.373082 -0.22853,-0.504118 0.028,-0.102267 0.15657,-0.61992 0.2858,-1.150341 0.12923,-0.53042 0.27391,-1.015711 0.32153,-1.078424 0.0476,-0.06271 0.18786,-0.102165 0.31165,-0.08767 l 0.22509,0.02635 0.19933,0.920564 c 0.10963,0.506311 0.21959,1.009333 0.24437,1.117828 l 0.045,0.197264 h 0.8418 0.84179 l -0.3556,-0.345095 c -0.33807,-0.328091 -0.54066,-0.776065 -0.54178,-1.198014 -0.002,-0.594883 0.48946,-1.254844 1.10998,-1.491824 0.46319,-0.176893 1.10162,-0.130877 1.57536,0.113548 0.46145,0.238083 0.83551,0.806837 0.84234,1.28076 0.006,0.419127 -0.24192,0.965307 -0.5826,1.283298 -0.12524,0.116901 -0.22772,0.242961 -0.22772,0.280133 0,0.03717 0.1874,0.07961 0.41645,0.09431 l 0.41645,0.02672 v 1.226218 c 0,1.39323 -0.0427,1.468785 -0.56988,1.00958 z m 0.31274,-1.989064 c -0.0352,-0.09178 -0.60173,-0.115225 -2.78475,-0.115225 h -2.74053 l 0.24121,0.2411 0.24122,0.2411 2.0493,-0.03065 c 1.12712,-0.01686 2.13222,-0.0043 2.23355,0.02783 l 0.18424,0.05848 v 0.521364 0.521364 l 0.28494,0.254877 0.28494,0.254875 0.0251,-0.929941 c 0.0138,-0.511468 0.005,-0.981793 -0.0192,-1.045167 z m -4.34569,-0.354936 c 0,-0.0354 -0.10849,-0.272023 -0.2411,-0.525828 -0.23403,-0.447943 -0.37261,-0.578376 -0.37261,-0.350723 0,0.06114 -0.0986,0.256307 -0.21918,0.433712 -0.12055,0.177406 -0.21918,0.364102 -0.21918,0.41488 0,0.05439 0.21613,0.09232 0.52604,0.09232 0.28932,0 0.52603,-0.02896 0.52603,-0.06436 z m 3.15622,-0.105806 c 0,-0.04537 -0.0388,-0.106467 -0.0862,-0.135762 -0.11807,-0.07297 -0.70287,0.0438 -0.70287,0.140345 0,0.04285 0.17754,0.07792 0.39453,0.07792 0.21699,0 0.39452,-0.03712 0.39452,-0.0825 z m 0.82269,-0.443791 c 0.17439,-0.193019 0.31706,-0.385452 0.31706,-0.427629 0,-0.04218 -0.0595,-0.126082 -0.13226,-0.186455 -0.11094,-0.09207 -0.19609,-0.04124 -0.52807,0.315262 -0.2177,0.233767 -0.37641,0.475596 -0.35269,0.537398 0.0819,0.21338 0.37997,0.111196 0.69596,-0.238576 z m -1.40464,0.132902 0.25095,-0.05326 -0.15494,-0.171205 c -0.0852,-0.09416 -0.20577,-0.171206 -0.26789,-0.171206 -0.1079,0 -0.38591,0.323945 -0.38591,0.449664 0,0.05875 0.0488,0.05402 0.55779,-0.054 z m -0.56021,-0.349261 c 0.16882,-0.179695 0.18454,-0.239463 0.0922,-0.350691 -0.2295,-0.276537 -0.44049,-0.106357 -0.44049,0.355291 0,0.116606 0.0326,0.212012 0.0724,0.212012 0.0398,0 0.16396,-0.09748 0.27588,-0.216612 z m 1.48799,-0.273443 c 0.21565,-0.245606 0.2544,-0.341114 0.17651,-0.434968 -0.0549,-0.06614 -0.1791,-0.145426 -0.27601,-0.176185 -0.12715,-0.04036 -0.25919,0.02451 -0.47428,0.232985 -0.16395,0.158901 -0.29808,0.332459 -0.29808,0.385686 0,0.157512 0.19635,0.307191 0.40298,0.307191 0.11122,0 0.30928,-0.132937 0.46888,-0.314709 z m -1.99357,-0.491379 c -0.11105,-0.111052 -0.2856,-0.0172 -0.24071,0.129432 0.018,0.05873 0.0615,0.225141 0.0968,0.369801 l 0.0641,0.263019 0.0851,-0.335911 c 0.0571,-0.225325 0.0554,-0.36568 -0.005,-0.426341 z m -1.88607,0.148542 0.11868,0.263018 -0.056,-0.394527 c -0.0308,-0.21699 -0.0735,-0.424117 -0.0949,-0.460282 -0.091,-0.153895 -0.18941,-0.04062 -0.28116,0.32376 -0.13107,0.52054 -0.11907,0.582614 0.0518,0.268031 l 0.14288,-0.263018 z m 3.35847,-0.485811 c 0,-0.07951 -0.0764,-0.213657 -0.16968,-0.298113 l -0.16967,-0.153553 -0.37828,0.360645 -0.37828,0.360645 0.26138,0.215229 0.26138,0.215229 0.28657,-0.277762 c 0.15762,-0.152768 0.28658,-0.342812 0.28658,-0.42232 z m 1.3966,0.37622 c -0.003,-0.08438 -0.0365,-0.230895 -0.0735,-0.325577 l -0.0673,-0.17215 -0.0607,0.241936 c -0.0334,0.133066 -0.0375,0.279575 -0.009,0.325578 0.0854,0.138107 0.21713,0.09443 0.21053,-0.06979 z m -2.3221,-0.59147 c 0.39676,-0.396759 0.45253,-0.657867 0.14051,-0.657867 -0.20232,0 -0.79312,0.580031 -0.79312,0.778663 0,0.167359 0.0728,0.27341 0.18765,0.27341 0.0389,0 0.24815,-0.177392 0.46496,-0.394206 z m 1.93327,0.133327 c 0.0851,-0.387239 -0.0235,-0.489701 -0.2718,-0.256468 -0.2311,0.217107 -0.26913,0.391176 -0.10034,0.459283 0.23339,0.09418 0.3169,0.04866 0.37214,-0.202815 z m -0.48173,-0.396667 0.20591,-0.219182 -0.25639,0.0013 c -0.33706,0.0018 -0.49479,0.109542 -0.42531,0.290603 0.0791,0.206181 0.23632,0.182139 0.47579,-0.07276 z m -0.28274,-0.496243 c -0.14499,-0.09201 -0.68167,-0.09476 -0.68167,-0.0035 0,0.03858 0.0427,0.112804 0.0948,0.164949 0.0673,0.06733 0.18232,0.06795 0.39672,0.0021 0.20613,-0.06326 0.26645,-0.11517 0.19013,-0.163606 z m -3.25476,-0.270894 c -0.27526,-0.687135 -0.49935,-1.278927 -0.49797,-1.315092 0.001,-0.03616 0.0616,-0.06575 0.13377,-0.06575 0.0722,0 0.27932,-0.132945 0.46029,-0.295433 l 0.32902,-0.295433 1.18118,0.691944 c 0.64965,0.380568 1.21909,0.729846 1.26541,0.776171 0.0463,0.04633 0.0592,0.109208 0.0287,0.139739 -0.0485,0.04847 -0.53464,-0.209001 -1.75201,-0.927843 -0.43545,-0.25713 -0.41647,-0.110571 0.0253,0.194959 0.32996,0.228227 0.44842,0.417278 0.26147,0.417278 -0.0472,0 -0.2922,-0.156146 -0.54435,-0.346991 -0.25215,-0.190845 -0.47492,-0.330528 -0.49504,-0.310407 -0.0201,0.02012 0.22483,0.328676 0.54435,0.685676 0.31951,0.357 0.58093,0.674221 0.58093,0.704934 0,0.03071 -0.0518,0.05584 -0.11515,0.05584 -0.0633,0 -0.38727,-0.313887 -0.71985,-0.697525 -0.33259,-0.38364 -0.61561,-0.686619 -0.62894,-0.673285 -0.0133,0.01333 0.11049,0.276411 0.27516,0.584619 0.27723,0.518868 0.31523,0.698519 0.14777,0.698519 -0.0364,0 -0.13444,-0.142969 -0.21776,-0.31771 -0.0833,-0.17474 -0.16956,-0.299659 -0.19162,-0.277597 -0.0221,0.02206 0.11771,0.427997 0.31061,0.902081 0.1929,0.474083 0.35073,0.875171 0.35073,0.891308 0,0.01613 -0.0521,0.02934 -0.11575,0.02934 -0.067,0 -0.32631,-0.525631 -0.61622,-1.249338 z m -1.28451,-2.106111 c 0,-0.158266 -0.0796,-0.356375 -0.19063,-0.474586 l -0.19062,-0.202914 h 0.19737 c 0.10855,0 0.30943,-0.112062 0.4464,-0.249027 l 0.24903,-0.249028 0.21851,0.249028 c 0.12019,0.136965 0.30217,0.249027 0.4044,0.249027 h 0.18588 l -0.18924,0.255967 c -0.13074,0.176833 -0.17229,0.323522 -0.1344,0.474484 l 0.0548,0.218518 -0.26275,-0.09918 c -0.19554,-0.07381 -0.33003,-0.07378 -0.52577,10e-5 l -0.26302,0.09928 z m 0.76242,-0.320104 c 0.0854,-0.112568 0.0693,-0.165649 -0.0869,-0.28607 l -0.19179,-0.147855 -0.1416,0.128141 c -0.0834,0.07551 -0.12537,0.213003 -0.1021,0.334758 0.0309,0.161599 0.0807,0.196007 0.22852,0.157927 0.10397,-0.02678 0.23622,-0.110885 0.2939,-0.186901 z m 14.36883,9.414008 c 0.29355,-0.02785 0.65657,-0.12534 0.80672,-0.216647 0.15014,-0.09131 0.34394,-0.29598 0.43067,-0.454828 l 0.15768,-0.288813 V 73.417433 68.46392 l -2.71785,-0.02453 c -1.49482,-0.01349 -2.80663,-0.0029 -2.91512,0.02359 -0.11002,0.02684 -0.1973,0.115235 -0.19734,0.199873 -1.7e-4,0.302515 -0.50641,1.212333 -0.83529,1.501096 -0.34719,0.304838 -1.12095,0.708604 -1.36084,0.710116 -0.34009,0.0021 -0.34631,0.08073 -0.34636,4.380112 l -6e-5,4.168841 3.22203,-0.02058 c 1.77212,-0.01132 3.46221,-0.04336 3.75576,-0.07121 z m -2.33102,-1.575481 c -0.65097,-0.207593 -1.85987,-0.583107 -2.68644,-0.834478 -0.82657,-0.25137 -1.55644,-0.492319 -1.62194,-0.535442 -0.0968,-0.0637 -0.0903,-0.09536 0.0343,-0.168831 0.21748,-0.128177 0.19243,-0.423627 -0.0433,-0.510836 l -0.19675,-0.07278 0.54744,-0.276347 c 0.30109,-0.15199 0.54744,-0.31063 0.54744,-0.352531 0,-0.0419 -0.0888,-0.101816 -0.19726,-0.133142 l -0.19727,-0.05696 0.41345,-0.216443 c 0.22739,-0.119043 0.45424,-0.292685 0.50412,-0.385869 0.0499,-0.09319 0.0907,-0.625728 0.0907,-1.183429 v -1.014001 h 0.21918 c 0.13638,0 0.21918,-0.04968 0.21918,-0.131509 0,-0.08238 0.0832,-0.131509 0.22268,-0.131509 0.22982,0 0.90743,-0.304875 0.92955,-0.418227 0.007,-0.03519 0.0233,-0.196493 0.0366,-0.358462 0.0144,-0.176428 0.11944,-0.394005 0.26192,-0.542721 0.14304,-0.149299 0.21691,-0.302732 0.18535,-0.384975 -0.0713,-0.185832 0.19144,-0.179352 0.47047,0.0116 0.29374,0.201015 0.34532,0.289669 0.34727,0.596873 9.2e-4,0.14466 0.0804,0.392224 0.17673,0.550141 0.17905,0.293671 0.4379,0.436846 0.94211,0.521099 0.15672,0.02619 0.28494,0.09889 0.28494,0.161553 0,0.06267 0.0888,0.126547 0.19726,0.141956 l 0.19726,0.02802 0.0246,1.065905 0.0245,1.065905 0.32277,0.07633 c 0.24003,0.05676 0.33579,0.131889 0.37355,0.293024 0.0347,0.148279 0.14514,0.247554 0.34969,0.314458 0.33443,0.109384 0.48682,0.357934 0.40916,0.66736 -0.0546,0.217605 -1.96749,2.541707 -2.11799,2.573299 -0.0482,0.01012 -0.62028,-0.151444 -1.27125,-0.359037 z m 1.11242,-0.538568 c -0.0573,-0.05593 -1.17126,-0.381412 -2.47546,-0.7233 -1.30421,-0.341888 -2.40164,-0.621614 -2.43875,-0.621614 -0.0371,0 -0.055,0.106264 -0.0397,0.236143 l 0.0277,0.236143 2.45484,0.758013 2.45484,0.758013 0.0604,-0.270855 c 0.0377,-0.169274 0.0213,-0.308992 -0.0438,-0.372543 z m 1.20531,-0.604193 c 0.49105,-0.593088 0.83849,-1.091601 0.83849,-1.203065 v -0.190331 l -0.16211,0.17291 c -1.46013,1.557446 -1.59135,1.720092 -1.59135,1.972559 0,0.143365 0.0172,0.260662 0.0383,0.260662 0.021,0 0.41556,-0.45573 0.87672,-1.012735 z m -0.22887,-0.558206 c 0.44239,-0.478258 0.80434,-0.892512 0.80434,-0.920564 0,-0.02805 -0.069,-0.04918 -0.15343,-0.04695 -0.0844,0.0022 -0.5085,0.336893 -0.94248,0.7437 -0.49205,0.461239 -0.8619,0.740221 -0.98259,0.741168 -0.10645,8.77e-4 -1.15195,-0.235005 -2.32333,-0.524088 -1.17139,-0.289083 -2.18568,-0.5258 -2.25399,-0.526037 -0.0683,-2.63e-4 -0.0978,0.02598 -0.0655,0.05826 0.0656,0.06556 4.75732,1.326969 4.97452,1.337427 0.076,0.0037 0.50009,-0.384651 0.94248,-0.862908 z m -1.29981,0.03834 c 0,-0.244707 -0.0391,-0.3141 -0.19726,-0.35018 -0.24627,-0.05617 -3.68986,-0.7474 -3.72344,-0.7474 -0.0588,0 -0.018,0.43888 0.0412,0.443532 0.0362,0.0028 0.89427,0.215931 1.90689,0.473531 1.01262,0.257599 1.87071,0.472264 1.90688,0.477032 0.0362,0.0048 0.0657,-0.128663 0.0657,-0.296515 z m 1.01987,-0.641818 c 0.29572,-0.250407 0.55833,-0.534299 0.58359,-0.63087 0.0253,-0.09657 0.0163,-0.175583 -0.0199,-0.175583 -0.079,0 -1.03768,0.816465 -1.25477,1.068629 -0.0844,0.09802 -0.15343,0.239139 -0.15343,0.3136 v 0.135385 l 0.15343,-0.127937 c 0.0844,-0.07036 0.39538,-0.332815 0.69109,-0.583224 z m -0.41503,-0.285581 c 0.21211,-0.191765 0.3587,-0.375618 0.32575,-0.408562 -0.18381,-0.183817 -2.69084,-0.256276 -3.81562,-0.11028 -0.40315,0.05233 -0.68683,0.0532 -0.74816,0.0023 -0.0584,-0.04849 -0.15029,-0.05014 -0.22489,-0.004 l -0.12611,0.07794 0.12905,0.04605 c 0.071,0.02533 0.8392,0.189148 1.70716,0.364044 0.86796,0.174896 1.59455,0.333832 1.61464,0.353191 0.0201,0.01936 0.19763,0.03358 0.39453,0.0316 0.29155,-0.0029 0.42957,-0.06831 0.74365,-0.35226 z m 0.66642,-0.608545 c 0.0298,-0.04822 0.0124,-0.08767 -0.0387,-0.08767 -0.0511,0 -0.0928,0.03945 -0.0928,0.08767 0,0.04822 0.0174,0.08767 0.0387,0.08767 0.0213,0 0.0631,-0.03945 0.0928,-0.08767 z m -4.42748,-1.232593 c 0,-0.872129 -0.022,-1.046899 -0.13151,-1.046899 -0.10948,0 -0.1315,0.173722 -0.1315,1.037461 0,0.570604 0.0252,1.062691 0.0561,1.093527 0.15316,0.153155 0.20695,-0.128654 0.20695,-1.084089 z m 4.03295,0.04901 c 0,-0.672159 -0.0339,-1.09591 -0.0877,-1.09591 -0.0538,0 -0.0877,0.423751 -0.0877,1.09591 0,0.672158 0.0339,1.09591 0.0877,1.09591 0.0538,0 0.0877,-0.423752 0.0877,-1.09591 z m -2.21118,-0.293622 c 0.0148,-0.697509 -0.0125,-1.224028 -0.0688,-1.329321 -0.11721,-0.219 -0.39512,-0.221923 -0.81362,-0.0086 -0.17885,0.09118 -0.42391,0.190568 -0.54457,0.220852 l -0.21939,0.05506 -2e-5,1.116158 -2e-5,1.116158 0.81099,-0.0077 0.811,-0.0077 0.0245,-1.154971 z m -1.43615,0.761404 c -0.0253,-0.04097 0.0255,-0.09715 0.11295,-0.124843 0.0874,-0.02769 0.2496,-0.08659 0.36037,-0.13089 0.24297,-0.09717 0.80685,-0.107037 0.80685,-0.01412 0,0.09838 -1.22637,0.356896 -1.28017,0.269853 z m -0.0199,-0.688134 c 0.0691,-0.20722 1.30009,-0.474802 1.30009,-0.282596 0,0.03681 -0.20713,0.119631 -0.46029,0.18405 -0.8484,0.215889 -0.88016,0.219616 -0.8398,0.09855 z m -0.015,-0.679634 c 0,-0.09443 0.80961,-0.37127 1.08575,-0.37127 0.14323,0 0.22934,0.04834 0.22934,0.128758 0,0.0719 -0.0521,0.108756 -0.11804,0.08346 -0.0649,-0.02491 -0.29177,0.0152 -0.50412,0.08915 -0.42251,0.14713 -0.69293,0.17441 -0.69293,0.0699 z m 3.31205,0.642435 -0.0243,-1.138263 -0.26301,-0.05456 c -0.14466,-0.03001 -0.39386,-0.12271 -0.55378,-0.206001 -0.15992,-0.08329 -0.39663,-0.139207 -0.52604,-0.124258 l -0.23528,0.02718 -0.0241,1.317085 -0.0241,1.317083 h 0.83747 0.83747 z m -0.68187,0.69138 c -0.21699,-0.06837 -0.4833,-0.124912 -0.59179,-0.125644 -0.1085,-7.32e-4 -0.19727,-0.04078 -0.19727,-0.089 0,-0.212647 1.22159,0.02633 1.29741,0.253812 0.0401,0.120422 -0.0155,0.116136 -0.50835,-0.03916 z m -0.0877,-0.696848 c -0.16877,-0.06499 -0.39563,-0.12117 -0.50412,-0.124839 -0.28523,-0.0096 -0.24335,-0.18227 0.0438,-0.180685 0.34293,0.0019 1.01486,0.215784 1.05486,0.335783 0.0438,0.131357 -0.2082,0.118533 -0.59457,-0.03026 z m 0.13151,-0.657546 c -0.0964,-0.04144 -0.3233,-0.07812 -0.50412,-0.08151 -0.23106,-0.0043 -0.32878,-0.04525 -0.32878,-0.137672 0,-0.08338 0.0839,-0.131509 0.22934,-0.131509 0.27614,0 1.08576,0.276844 1.08576,0.37127 0,0.08675 -0.25806,0.07574 -0.4822,-0.02058 z m -0.70139,-1.139746 c 0.0298,-0.04822 -0.007,-0.08767 -0.0825,-0.08767 -0.16279,0 -0.17128,-0.09115 -0.0361,-0.387805 0.0791,-0.173602 0.0747,-0.251819 -0.0204,-0.366453 l -0.12095,-0.145743 -0.0517,0.2089 c -0.0387,0.156529 -0.10346,0.202969 -0.25829,0.185241 -0.11365,-0.01301 -0.23843,0.02644 -0.27729,0.08767 -0.108,0.170154 -0.0866,0.485891 0.0362,0.53547 0.19857,0.08013 0.75572,0.05979 0.81097,-0.02961 z m -3.79602,-0.823446 c 0.94244,-0.447542 1.56037,-1.416498 1.56037,-2.446782 0,-1.178777 -0.95304,-2.315751 -2.17038,-2.58927 -0.27838,-0.06255 -0.36347,-0.0503 -0.44161,0.06356 l -0.0968,0.14104 -0.0874,-0.12897 c -0.1145,-0.168877 -0.1903,-0.08695 -0.13064,0.141204 l 0.0471,0.179923 0.40975,-0.03812 c 0.32917,-0.03062 0.50428,0.01157 0.89035,0.214524 0.5359,0.281713 0.99759,0.818095 1.13735,1.321357 0.11692,0.420969 0.11587,1.112625 -0.002,1.538265 -0.11248,0.405062 -0.59505,0.958651 -1.08225,1.241523 -0.70963,0.412015 -1.74148,0.435478 -2.48436,0.05649 -0.54507,-0.278074 -0.86557,-0.590397 -1.11074,-1.082391 -0.16236,-0.325805 -0.226,-0.592413 -0.226,-0.946726 0,-1.092905 0.56501,-1.920988 1.55449,-2.278259 0.30043,-0.108479 0.52718,-0.228084 0.50388,-0.265785 -0.0568,-0.09193 -0.87022,0.127862 -1.16521,0.314846 -0.66506,0.421554 -1.01615,0.95093 -1.16512,1.756783 -0.18084,0.97829 0.25438,1.995888 1.09347,2.556659 0.60772,0.406151 1.12743,0.551099 1.85251,0.516674 0.44073,-0.02092 0.75461,-0.09605 1.11365,-0.266547 z m -0.096,-0.552327 c 0.25348,-0.143209 0.5177,-0.345952 0.58714,-0.450541 l 0.12626,-0.19016 h -1.85182 c -1.07916,0 -1.85182,0.03392 -1.85182,0.08129 0,0.139231 0.63376,0.611529 1.00497,0.748936 0.22552,0.08348 0.56631,0.120102 0.93917,0.100936 0.45024,-0.02314 0.69152,-0.09014 1.0461,-0.290461 z m 0.51472,-0.925638 c -0.001,-0.06028 -0.0775,-0.20794 -0.16986,-0.328145 l -0.16792,-0.218554 -0.29042,0.118285 c -1.05374,0.42918 -1.30652,0.435497 -1.97181,0.04927 -0.20147,-0.116958 -0.38565,-0.212651 -0.40929,-0.212651 -0.0508,0 -0.40799,0.565503 -0.40799,0.645976 0,0.03047 0.76933,0.05541 1.70962,0.05541 1.31029,0 1.70917,-0.0256 1.70767,-0.109591 z m -3.02065,-1.030155 c 0.32803,-0.50631 0.72984,-1.128579 0.8929,-1.382818 0.16307,-0.25424 0.27002,-0.50507 0.23768,-0.5574 -0.0904,-0.146276 -0.7361,-0.01114 -1.10368,0.230987 -0.61952,0.408082 -0.97152,1.089091 -0.96796,1.872708 0.002,0.461953 0.1635,0.957884 0.27245,0.837118 0.0397,-0.04402 0.34058,-0.494285 0.66861,-1.000595 z m 3.54513,0.586793 c 0.18442,-0.888392 -0.19128,-1.797513 -0.95047,-2.299924 -0.26831,-0.177559 -0.42861,-0.220254 -0.74697,-0.198954 l -0.40534,0.02712 0.94355,1.467665 c 0.51896,0.807216 0.97035,1.46805 1.00309,1.468519 0.0328,4.39e-4 0.10301,-0.208521 0.15614,-0.464426 z m -1.9083,0.005 c 0.076,-0.06027 0.15711,-0.16877 0.18026,-0.2411 0.0644,-0.201206 -0.0948,-0.438364 -0.29427,-0.438364 h -0.17853 l 0.13405,0.134047 c 0.17691,0.176908 0.0862,0.391991 -0.16536,0.391991 -0.2561,0 -0.34117,-0.216173 -0.1574,-0.399952 l 0.14201,-0.142008 -0.21149,0.02988 c -0.43457,0.0614 -0.22858,0.775098 0.22371,0.775098 0.10386,0 0.25102,-0.04932 0.32702,-0.109591 z m -1.06907,-0.328772 c 0,-0.193409 -0.0106,-0.199414 -0.21425,-0.12127 -0.10907,0.04185 -0.11817,0.08148 -0.0403,0.175345 0.1438,0.173271 0.25452,0.149748 0.25452,-0.05407 z m 1.74277,0.09613 c 0.14146,-0.0896 0.057,-0.271478 -0.126,-0.271478 -0.0695,0 -0.12633,0.07891 -0.12633,0.175345 0,0.190346 0.0647,0.214988 0.25233,0.09613 z m -0.18662,-0.753679 c -0.12394,-0.235331 -0.7663,-1.183582 -0.80178,-1.183582 -0.0246,0 -0.31344,0.422593 -0.7789,1.139746 l -0.14226,0.219182 h 0.90764 0.90764 z m -3.58701,-0.691174 c 0.35574,-0.702724 0.75424,-1.032049 1.65941,-1.371349 l 0.59063,-0.221396 0.0228,-4.316523 0.0227,-4.316522 -4.1872,0.02277 -4.1872,0.02277 -0.0226,5.342442 c -0.0178,4.215613 6.5e-4,5.357354 0.0877,5.413141 0.0607,0.03888 1.36983,0.06113 2.90929,0.04943 l 2.79901,-0.02126 z m -2.68155,0.238583 c -0.13085,-0.0528 -0.14608,-0.347403 -0.0219,-0.424137 0.0482,-0.0298 0.0877,-0.344129 0.0877,-0.698505 v -0.644322 l -0.39435,-0.249151 c -0.2169,-0.137033 -0.38149,-0.288603 -0.36576,-0.336823 0.0157,-0.04822 0.17794,-0.107399 0.36046,-0.131509 l 0.33185,-0.04384 0.0208,-2.235656 c 0.0115,-1.229611 0.0515,-2.40333 0.0889,-2.608265 l 0.0681,-0.37261 h -0.93177 -0.93177 l 9.9e-4,0.197264 c 10e-4,0.288697 0.94384,2.811064 1.09149,2.921418 l 0.12573,0.09397 -0.16039,0.263738 c -0.21366,0.351326 -0.67371,0.556632 -1.24642,0.556232 -0.52423,-3.51e-4 -0.93558,-0.198969 -1.17781,-0.568659 l -0.14852,-0.226667 0.13835,-0.106292 c 0.14279,-0.109701 1.1131,-2.70463 1.11339,-2.977575 1.2e-4,-0.101869 -0.0678,-0.153428 -0.20225,-0.153428 -0.11134,0 -0.27398,-0.05232 -0.36144,-0.116272 -0.11111,-0.08125 -0.14079,-0.173682 -0.0985,-0.306854 0.0712,-0.224223 0.15951,-0.236889 0.42752,-0.06128 l 0.19733,0.129297 1.04892,-0.135664 c 0.57691,-0.07462 1.07944,-0.165297 1.11675,-0.201513 0.0608,-0.05902 0.23669,-1.311135 0.23836,-1.696792 3.7e-4,-0.08439 0.0598,-0.153428 0.13217,-0.153428 0.0723,0 0.13163,0.04932 0.13176,0.109591 6.9e-4,0.30632 0.19823,1.695801 0.24853,1.748164 0.0319,0.03325 0.54088,0.12326 1.13096,0.200012 l 1.07288,0.139551 0.22778,-0.149244 0.22777,-0.149244 0.0807,0.124577 c 0.0444,0.06852 0.0706,0.203482 0.0583,0.299922 -0.0172,0.134297 -0.0994,0.181716 -0.3512,0.202557 -0.21557,0.01784 -0.32877,0.0708 -0.32877,0.153816 0,0.22524 1.03727,2.955697 1.14909,3.024805 0.083,0.05129 0.073,0.120874 -0.043,0.297783 -0.0832,0.126967 -0.27734,0.307724 -0.43143,0.401682 -0.37998,0.231688 -1.09641,0.228273 -1.55843,-0.0074 -0.37574,-0.191692 -0.63005,-0.575014 -0.45376,-0.683966 0.1525,-0.09425 1.18022,-3.011719 1.09199,-3.099944 -0.0423,-0.04225 -0.46786,-0.06544 -0.94581,-0.05155 l -0.869,0.02526 0.0263,0.175345 c 0.0144,0.09644 0.0494,1.27016 0.0777,2.608266 l 0.0514,2.43292 h 0.33355 c 0.18345,0 0.35641,0.037 0.38436,0.08222 0.0279,0.04522 -0.12754,0.204928 -0.34552,0.354903 l -0.39633,0.272684 v 0.610687 c 0,0.335878 0.0457,0.683831 0.10151,0.77323 0.0558,0.0894 0.0768,0.226948 0.0466,0.305665 -0.0432,0.112475 -0.17285,0.14164 -0.60563,0.136201 -0.30289,-0.0038 -0.60002,-0.02682 -0.6603,-0.05114 z m 1.07399,-0.204955 c 0.0336,-0.05443 -0.1306,-0.08767 -0.43319,-0.08767 -0.26805,0 -0.48737,0.03945 -0.48737,0.08767 0,0.04822 0.19493,0.08767 0.43319,0.08767 0.23825,0 0.45757,-0.03945 0.48737,-0.08767 z m -0.23393,-0.350507 c 0.0322,8.8e-5 0.0454,-0.256342 0.0292,-0.569873 l -0.0294,-0.570057 h -0.25554 -0.25554 l -0.011,0.438364 c -0.006,0.2411 -0.0167,0.48768 -0.0238,0.547955 -0.0152,0.130322 0.2059,0.24434 0.37067,0.191132 0.0642,-0.02074 0.14312,-0.03762 0.17534,-0.03752 z m 0.14907,-1.442311 c 0.16723,-0.06987 0.30404,-0.148775 0.30404,-0.175346 0,-0.02657 -0.32045,-0.04831 -0.71211,-0.04831 h -0.71212 l 0.10477,0.126246 c 0.0944,0.113713 0.2762,0.178222 0.59898,0.212506 0.0618,0.0066 0.24922,-0.04523 0.41644,-0.115096 z m -0.58626,-3.182613 c -0.009,-1.878984 -0.0334,-2.470113 -0.079,-1.950719 -0.10141,1.155646 -0.0977,4.646658 0.005,4.646658 0.0568,0 0.0829,-0.948046 0.0741,-2.695939 z m 0.44242,0.569874 c -0.005,-1.169336 -0.0389,-2.362782 -0.0748,-2.652102 -0.0403,-0.324619 -0.0702,0.48945 -0.0782,2.126065 -0.008,1.718212 0.018,2.652102 0.0748,2.652102 0.0563,0 0.0843,-0.760793 0.0781,-2.126065 z m -2.15757,0.605371 c 0.15517,-0.06486 0.33627,-0.183218 0.40245,-0.263018 l 0.12033,-0.14509 h -1.02971 -1.02971 l 0.12029,0.144944 c 0.15927,0.191906 0.58712,0.373395 0.89032,0.377662 0.13415,0.0019 0.37087,-0.04964 0.52603,-0.114498 z m 4.88844,-0.0592 c 0.19096,-0.09742 0.3472,-0.215779 0.3472,-0.263018 0,-0.05091 -0.39579,-0.08589 -0.97171,-0.08589 -0.73729,0 -0.9634,0.02644 -0.93726,0.109591 0.053,0.168485 0.60394,0.416158 0.92614,0.41631 0.15864,7.5e-5 0.44467,-0.07957 0.63563,-0.176991 z m -5.52688,-1.590941 c 0,-0.586677 -0.0183,-1.048431 -0.0406,-1.026121 -0.0223,0.02231 -0.17742,0.433277 -0.34468,0.913259 -0.16726,0.479981 -0.33077,0.941735 -0.36334,1.02612 l -0.0592,0.153428 h 0.4039 0.40391 z m 0.9644,0.950179 c 0,-0.06408 -0.15582,-0.547374 -0.34626,-1.073992 l -0.34626,-0.957485 -0.004,1.015543 c -0.002,0.55855 0.0219,1.041846 0.054,1.073992 0.0321,0.03215 0.18995,0.05845 0.35069,0.05845 0.1846,0 0.29224,-0.04291 0.29224,-0.116507 z m 3.83865,-0.977979 c 0.0153,-0.64816 -0.006,-1.017609 -0.0564,-0.964401 -0.0932,0.09891 -0.71366,1.806735 -0.71366,1.964503 0,0.06868 0.12763,0.09523 0.37261,0.07751 l 0.37261,-0.02696 z m 0.93367,0.897222 c -0.0338,-0.108495 -0.21174,-0.611518 -0.39535,-1.117828 l -0.33386,-0.920565 -0.005,1.05938 c -0.003,0.582659 0.0212,1.085682 0.0534,1.117828 0.0321,0.03215 0.21234,0.05845 0.40043,0.05845 h 0.34199 z M 271.9188,59.0567 c 0,-0.03854 -0.14795,-0.0554 -0.32878,-0.03748 -0.50898,0.05045 -0.54606,0.09301 -0.0877,0.100628 0.22905,0.0038 0.41645,-0.02461 0.41645,-0.06315 z m 1.53427,0.02566 c -0.20479,-0.07138 -0.74522,-0.09 -0.74522,-0.02566 0,0.03854 0.1874,0.06695 0.41645,0.06315 0.22904,-0.0038 0.37699,-0.02067 0.32877,-0.03748 z m 12.64747,3.00251 0.0226,-5.414645 -4.18705,0.02277 -4.18704,0.02277 v 4.198739 4.198739 l 0.13151,0.07017 c 0.0723,0.03859 0.31985,0.137382 0.55005,0.219532 0.68455,0.24429 1.48381,1.052349 1.68353,1.702048 0.0371,0.12055 0.10727,0.26903 0.15603,0.329956 0.0689,0.08604 0.72703,0.105616 2.94823,0.08767 l 2.85956,-0.0231 z m -1.51453,4.764223 c -0.35602,-0.159655 -0.59445,-0.498 -0.6953,-0.986685 -0.0266,-0.128889 -0.15051,-0.355742 -0.27536,-0.504119 -0.18696,-0.222184 -0.29179,-0.269775 -0.59423,-0.269775 -0.40635,0 -0.73248,-0.182439 -0.83958,-0.469663 -0.041,-0.109921 -0.024,-0.341717 0.041,-0.558611 l 0.11105,-0.370727 -0.32276,-0.462165 -0.32275,-0.462163 -0.53732,-0.05962 c -0.60055,-0.06663 -1.028,-0.25232 -1.16345,-0.505397 -0.12969,-0.242342 -0.11118,-0.749497 0.0406,-1.112826 l 0.1309,-0.313281 -0.18204,-0.255651 c -0.10013,-0.140609 -0.31975,-0.31319 -0.48806,-0.383515 -0.25869,-0.108086 -0.29672,-0.158648 -0.24586,-0.326897 0.0675,-0.223261 0.46711,-0.681234 0.59446,-0.681234 0.0456,0 0.21754,0.142832 0.38218,0.317404 0.16465,0.174573 0.31545,0.301313 0.33511,0.281646 0.0197,-0.01967 0.0612,-0.195155 0.0924,-0.389971 0.0471,-0.294594 0.022,-0.394427 -0.14941,-0.593161 -0.12652,-0.146728 -0.35558,-0.272445 -0.59347,-0.325732 -0.36416,-0.08157 -1.3109,-0.599392 -1.48917,-0.814506 -0.0582,-0.07029 0.15172,-0.104223 0.74998,-0.121184 0.6589,-0.01868 0.90779,0.01046 1.20239,0.140772 0.52156,0.23071 0.99111,0.668944 1.11323,1.038983 0.12278,0.372032 0.0597,1.049897 -0.13225,1.421082 -0.0749,0.144858 -0.1362,0.373959 -0.1362,0.509113 0,0.281116 0.52185,1.065681 0.81488,1.225116 0.10635,0.05786 0.35117,0.131145 0.54405,0.162848 0.19288,0.0317 0.43603,0.111693 0.54034,0.177755 0.25424,0.161025 0.33043,0.567113 0.20472,1.091136 l -0.10347,0.431303 0.24908,0.35201 c 0.16684,0.235791 0.31611,0.352628 0.4521,0.353882 0.22607,0.0021 0.55164,0.152153 0.65069,0.299933 0.0356,0.05306 0.0571,0.294334 0.0478,0.536171 l -0.0169,0.439707 0.38151,0.516434 c 0.29428,0.39835 0.36139,0.548392 0.29351,0.656204 -0.12261,0.194729 -0.27678,0.198194 -0.68443,0.01538 z m 0.48371,-0.144482 c 0,-0.09284 -0.46259,-0.656698 -0.50443,-0.614858 -0.0592,0.05921 0.32692,0.664544 0.4239,0.664544 0.0443,0 0.0805,-0.02236 0.0805,-0.04969 z m -0.6983,-0.382915 c -0.11044,-0.206352 -0.11725,-0.659764 -0.0153,-1.015388 0.10136,-0.353437 -0.0193,-0.656158 -0.26161,-0.656158 h -0.19176 l 0.14234,0.157285 c 0.10756,0.118847 0.13777,0.308519 0.12363,0.776121 -0.0127,0.418455 0.0201,0.665608 0.10117,0.76328 0.16183,0.194995 0.21257,0.182426 0.10149,-0.02514 z m -0.40975,-1.173486 c -0.0324,-0.05694 -0.23226,-0.350112 -0.44423,-0.651488 -0.35847,-0.509685 -0.55187,-0.670851 -0.55187,-0.459889 0,0.143416 0.90978,1.304621 0.98548,1.257832 0.0382,-0.02361 0.043,-0.08951 0.0106,-0.146455 z m -1.02756,-0.587017 -0.2224,-0.264302 0.12058,-0.371325 c 0.0663,-0.20423 0.18205,-0.537921 0.25718,-0.741537 0.0958,-0.259683 0.11242,-0.433821 0.0556,-0.583275 -0.0963,-0.253228 -0.19042,-0.318928 -0.58436,-0.407775 -0.3833,-0.08645 -0.39146,0.0571 -0.0206,0.361956 0.3426,0.281608 0.35089,0.547058 0.0381,1.218487 -0.24767,0.531627 -0.28043,0.787593 -0.12115,0.946866 0.0579,0.05786 0.2389,0.105207 0.40232,0.105207 h 0.29711 z M 281.833,62.090741 c -0.38833,-0.541116 -0.72335,-1.024985 -0.74447,-1.075266 -0.0228,-0.05428 -0.0762,-0.03799 -0.13142,0.04009 -0.0512,0.07233 -0.0936,0.158706 -0.0943,0.191946 -7e-4,0.03324 0.36313,0.546126 0.80858,1.139746 0.65067,0.867083 0.81561,1.040772 0.83882,0.88332 0.0197,-0.1338 -0.19514,-0.508179 -0.67716,-1.179836 z m -0.44554,0.405662 c 0,-0.140748 -0.19773,-0.388764 -0.30994,-0.388764 -0.0706,0 -0.21177,-0.08335 -0.31364,-0.185215 -0.23546,-0.235465 -0.19703,-0.503275 0.22279,-1.552602 0.33156,-0.828697 0.40172,-1.468486 0.20042,-1.827486 -0.13826,-0.246566 -0.49938,-0.526953 -0.8876,-0.689161 -0.35975,-0.15031 -0.52293,-0.165486 -0.44631,-0.0415 0.0298,0.04822 -0.027,0.08767 -0.12633,0.08767 -0.10201,0 -0.18052,-0.05719 -0.18052,-0.13151 0,-0.143664 -0.30903,-0.182168 -0.39147,-0.04877 -0.0588,0.09521 0.64312,0.530976 0.85533,0.530976 0.26483,0 0.601,0.208781 0.7263,0.451079 0.0687,0.132878 0.12493,0.384613 0.12493,0.559411 0,0.174799 -0.16179,0.731615 -0.35953,1.237369 -0.19774,0.505755 -0.36339,1.056042 -0.36812,1.222861 -0.0104,0.366591 0.22913,0.637804 0.65132,0.737511 0.37128,0.08768 0.60237,0.10231 0.60237,0.03814 z m -1.02286,-2.244455 c 0.0494,-0.18875 -0.14208,-0.54073 -0.41915,-0.770685 -0.11298,-0.09376 -0.16344,-0.07812 -0.30803,0.09546 -0.0951,0.114173 -0.17424,0.237177 -0.17585,0.273342 -0.002,0.03616 0.073,0.06575 0.16576,0.06575 0.0928,0 0.26045,0.116175 0.37261,0.258167 0.11217,0.141993 0.22892,0.260351 0.25947,0.263019 0.0305,0.0027 0.0779,-0.08061 0.10519,-0.185057 z m 11.82826,6.129739 0.0222,-13.961892 3.76459,-0.02287 c 2.07053,-0.01258 3.79661,0.0091 3.83574,0.04828 0.0802,0.08021 0.10446,27.685707 0.0244,27.815185 -0.0311,0.05041 -1.55223,0.0832 -3.86027,0.0832 h -3.80887 z m 11.92377,13.903829 c -0.087,-0.03512 -0.10959,-2.894637 -0.10959,-13.886132 v -13.84191 l 0.16958,-0.09076 c 0.11415,-0.06109 3.55086,-0.09076 10.51356,-0.09076 5.68919,0 10.40834,0.0247 10.487,0.05488 l 0.14301,0.05488 -0.0136,2.553387 c -0.008,1.404363 -0.0503,2.622342 -0.095,2.706619 l -0.0813,0.153231 -6.62966,-0.004 c -3.64631,-0.0022 -6.66367,0.03002 -6.70526,0.07161 -0.0416,0.04158 -0.0652,1.307536 -0.0524,2.81323 l 0.0232,2.737627 6.16111,-0.0052 6.16112,-0.0052 0.0636,0.155122 c 0.035,0.08531 0.0637,1.318973 0.0637,2.741464 v 2.586347 l -6.22477,0.04384 -6.22477,0.04384 v 2.893202 2.893202 l 6.65482,0.02247 c 4.73899,0.016 6.68876,0.05064 6.77272,0.120326 0.0937,0.07774 0.11791,0.607657 0.11791,2.578623 0,1.364422 -0.024,2.543174 -0.0532,2.619448 l -0.0532,0.13868 -10.48943,-0.0069 c -5.76919,-0.0038 -10.53876,-0.02682 -10.59903,-0.05114 z m 25.47625,-0.02958 c -0.0161,-0.04821 -0.0191,-6.34108 -0.007,-13.984162 l 0.0225,-13.896513 10.62979,0.02227 10.62978,0.02227 0.0232,2.619608 c 0.0163,1.833624 -0.006,2.655047 -0.0748,2.737725 -0.0806,0.09712 -1.2761,0.118256 -6.72601,0.118893 -5.36982,6.14e-4 -6.64017,0.02256 -6.6922,0.115535 -0.0353,0.06312 -0.0569,1.327213 -0.048,2.809101 l 0.0162,2.69434 6.10777,-0.0034 6.10778,-0.0034 0.1402,0.140209 0.14021,0.140208 -0.0232,2.600711 -0.0232,2.600702 -6.20133,0.02251 -6.20132,0.02251 -0.05,0.199142 c -0.0275,0.109528 -0.038,1.421068 -0.0235,2.914533 l 0.0265,2.71539 6.75081,0.04384 6.7508,0.04384 0.0232,2.695938 0.0232,2.695939 h -10.6462 c -7.01757,0 -10.65617,-0.02987 -10.67543,-0.08765 z m 25.61503,-13.85062 V 52.467012 l 0.19726,-0.04763 c 0.1085,-0.0262 4.89214,-0.03681 10.63033,-0.02359 l 10.43306,0.02404 0.0232,2.668037 c 0.0181,2.075268 -10e-4,2.684133 -0.0877,2.740486 -0.061,0.03985 -2.32025,0.06995 -5.02057,0.06689 -2.70033,-0.0031 -5.68942,-0.0034 -6.64244,-7.02e-4 l -1.73274,0.0048 0.0231,2.807886 0.0231,2.807887 6.14849,-0.0035 6.1485,-0.0035 0.0532,0.198399 c 0.0292,0.109118 0.0537,1.352391 0.0544,2.762828 l 0.001,2.564409 h -6.22239 -6.22238 l -0.0243,2.827448 c -0.0134,1.555096 0.0101,2.876764 0.0522,2.937039 0.0601,0.08605 1.51499,0.109591 6.77273,0.109591 4.40236,0 6.69796,0.03003 6.70127,0.08767 0.003,0.04822 0.005,1.19235 0.005,2.542511 0,1.350161 -0.002,2.533744 -0.005,2.630184 l -0.005,0.175346 H 365.86019 355.20794 V 66.405316 Z M 277.14752,55.296042 c -0.0308,-0.03084 -0.0561,-0.759639 -0.0561,-1.619564 V 52.11298 h 0.13151 0.13151 v 1.572936 c 0,1.429243 -0.0442,1.772907 -0.20695,1.610126 z m -5.19244,-0.21435 c -0.071,-0.114888 0.0481,-0.277637 1.61378,-2.20491 1.1203,-1.379031 1.46228,-1.708632 1.46228,-1.409329 0,0.113482 -2.7757,3.602652 -2.91231,3.660892 -0.0587,0.02504 -0.13242,0.004 -0.16375,-0.04665 z m 8.95014,-1.690242 c -0.77152,-0.976673 -1.41552,-1.841413 -1.43111,-1.921646 -0.0156,-0.08023 0.0239,-0.143898 0.0877,-0.141479 0.14379,0.0055 2.89356,3.453777 2.90979,3.648993 0.006,0.07783 -0.0277,0.152391 -0.0759,0.165701 -0.0482,0.01331 -0.71892,-0.774896 -1.49044,-1.751569 z m -5.47955,-0.215801 c 0,-0.196928 0.33109,-1.149078 0.44155,-1.269828 0.0381,-0.04161 0.11019,-0.05032 0.16027,-0.01937 0.059,0.03645 0.008,0.292515 -0.14579,0.726884 -0.23023,0.651854 -0.45603,0.930285 -0.45603,0.562314 z m 3.24407,-0.337102 c -0.275,-0.735013 -0.31362,-0.988585 -0.15057,-0.988585 0.0896,0 0.20981,0.223854 0.35957,0.669281 0.12377,0.368105 0.20391,0.703453 0.1781,0.745219 -0.10356,0.167565 -0.20808,0.05257 -0.3871,-0.425915 z m -5.91087,-1.327585 c -0.0299,-0.04836 0.0746,-0.181615 0.23224,-0.296114 0.15762,-0.114498 0.43189,-0.314333 0.6095,-0.444079 0.17761,-0.129744 0.38473,-0.235899 0.46028,-0.235899 0.27871,0 0.11726,0.228979 -0.41337,0.58626 -0.64313,0.433033 -0.81528,0.508548 -0.88865,0.389832 z m 8.08379,-0.344269 c -0.56395,-0.395361 -0.69459,-0.587987 -0.39877,-0.587987 0.19962,0 1.31157,0.821555 1.249,0.922811 -0.029,0.04698 -0.0998,0.08371 -0.15722,0.08162 -0.0574,-0.0021 -0.36928,-0.189494 -0.69301,-0.416446 z m -11.99245,-0.05475 c 0,-0.07761 0.25524,-0.207246 0.67946,-0.34509 3.54777,-1.152789 4.00039,-1.285936 4.08471,-1.201614 0.0495,0.04949 0.0645,0.11546 0.0334,0.146599 -0.062,0.06195 -4.58774,1.524414 -4.71751,1.524414 -0.044,0 -0.08,-0.05594 -0.08,-0.124309 z m 6.42031,-0.642828 c 0.098,-0.421925 0.19693,-0.915538 0.21982,-1.096919 l 0.0416,-0.329782 -0.33984,-0.327764 c -0.18691,-0.18027 -0.56821,-0.519431 -0.84732,-0.753691 -0.27912,-0.23426 -0.49249,-0.44093 -0.47415,-0.459267 0.0236,-0.02357 2.15464,-0.298388 2.31383,-0.298388 0.008,0 0.23282,-0.453707 0.49947,-1.008237 0.26665,-0.554531 0.50655,-1.008237 0.5331,-1.008237 0.0266,0 0.27012,0.443843 0.54125,0.986319 0.27113,0.542475 0.49932,0.993904 0.5071,1.003175 0.008,0.0093 0.52413,0.07972 1.14745,0.156552 0.62333,0.07683 1.15205,0.158424 1.17494,0.181313 0.0229,0.02289 -0.0209,0.09053 -0.0974,0.150303 -0.69191,0.541064 -1.55783,1.343606 -1.55783,1.44381 0,0.06828 0.1004,0.560084 0.2231,1.092901 0.12271,0.532818 0.20929,0.982576 0.1924,0.999464 -0.0169,0.01689 -0.48214,-0.204914 -1.03389,-0.492892 -0.55175,-0.287978 -1.03586,-0.523596 -1.07581,-0.523596 -0.0399,0 -0.51716,0.236716 -1.06048,0.526037 -0.54333,0.28932 -1.00985,0.526036 -1.03672,0.526036 -0.0269,0 0.0313,-0.345211 0.12934,-0.767137 z m 1.20984,-0.242416 0.78817,-0.395843 0.78723,0.411415 c 0.43298,0.226278 0.80958,0.389059 0.83691,0.361737 0.0273,-0.02732 -0.0357,-0.413316 -0.14004,-0.857763 -0.1591,-0.677655 -0.1705,-0.825192 -0.0706,-0.914081 0.0655,-0.0583 0.36566,-0.31446 0.66704,-0.569248 0.30137,-0.254789 0.54795,-0.49526 0.54795,-0.53438 0,-0.03912 -0.34521,-0.09749 -0.76714,-0.129704 -0.42192,-0.03222 -0.83844,-0.07859 -0.92559,-0.103047 -0.0912,-0.0256 -0.30678,-0.348001 -0.508,-0.759769 -0.19225,-0.393414 -0.38077,-0.746515 -0.41892,-0.78467 -0.0382,-0.03815 -0.1998,0.218065 -0.35922,0.569375 -0.39101,0.861711 -0.55735,1.033084 -1.0036,1.034036 -0.54911,0.0012 -1.2779,0.103454 -1.2779,0.179348 0,0.03741 0.27298,0.298218 0.60662,0.579579 0.33364,0.281362 0.62571,0.55415 0.64905,0.606197 0.0233,0.05205 -0.0323,0.407121 -0.12373,0.789055 -0.17319,0.723754 -0.19853,0.913607 -0.12195,0.913607 0.0251,0 0.40027,-0.17813 0.83376,-0.395844 z m -0.56609,-0.208526 c 0.0294,-0.173907 0.0891,-0.454279 0.13264,-0.623049 0.0435,-0.16877 0.0794,-0.369734 0.0796,-0.446587 2.7e-4,-0.07685 -0.23623,-0.329595 -0.52555,-0.56165 -0.28932,-0.232056 -0.52603,-0.452069 -0.52603,-0.488918 0,-0.03685 0.2663,-0.0921 0.59179,-0.122787 0.32548,-0.03068 0.67533,-0.08977 0.77743,-0.131313 0.10888,-0.04429 0.29731,-0.31415 0.45568,-0.652573 0.14852,-0.317376 0.30481,-0.577047 0.34732,-0.577047 0.0425,0 0.17281,0.204303 0.28955,0.454007 0.33952,0.726242 0.47857,0.86035 0.89808,0.866137 0.20143,0.0028 0.52145,0.03261 0.71114,0.0663 l 0.34491,0.06125 -0.55984,0.498688 -0.55984,0.498688 0.13461,0.706267 c 0.0771,0.40437 0.0993,0.706266 0.0521,0.706266 -0.0454,0 -0.35447,-0.147948 -0.68689,-0.328773 l -0.60439,-0.328773 -0.70292,0.360031 -0.70291,0.360031 z m 0.86839,-0.422131 0.48414,-0.237446 0.48414,0.237446 c 0.26628,0.130595 0.49518,0.237446 0.50867,0.237446 0.0135,0 -0.0155,-0.24215 -0.0645,-0.538111 l -0.089,-0.538112 0.42541,-0.369055 0.42541,-0.369055 -0.28617,-0.05723 c -0.1574,-0.03148 -0.41976,-0.05723 -0.58302,-0.05723 h -0.29685 l -0.23649,-0.4822 c -0.13008,-0.26521 -0.2623,-0.4822 -0.29383,-0.4822 -0.0315,0 -0.15153,0.198894 -0.26667,0.441988 -0.21868,0.461707 -0.23311,0.469951 -0.9984,0.570347 l -0.43836,0.05751 0.42965,0.373122 0.42965,0.373122 -0.057,0.341294 c -0.0313,0.187711 -0.0813,0.430062 -0.11111,0.538557 -0.0298,0.108495 -0.0306,0.197264 -0.002,0.197264 0.0287,0 0.26999,-0.106851 0.53626,-0.237446 z m 6.31438,0.902301 c -1.63231,-0.538441 -2.19923,-0.761222 -2.22083,-0.872725 -0.023,-0.118659 0.015,-0.138675 0.18315,-0.09647 0.11669,0.02929 1.19497,0.376051 2.39617,0.770587 1.20121,0.394536 2.18402,0.756791 2.18402,0.805011 0,0.04822 -0.0789,0.09418 -0.17535,0.102137 -0.0964,0.008 -1.16166,-0.310887 -2.36716,-0.708537 z m 44.40627,-0.418588 c -0.53171,-0.149839 -0.97496,-0.18311 -1.07721,-0.08085 -0.0537,0.05368 -0.12917,0.09761 -0.16775,0.09761 -0.0386,0 -0.0701,-0.417542 -0.0701,-0.92787 0,-0.691374 0.0273,-0.91878 0.10701,-0.892202 0.0589,0.01962 0.13866,0.188043 0.17736,0.374279 0.0957,0.460447 0.45432,0.905306 0.88904,1.102719 0.43831,0.199043 0.85414,0.211845 1.19279,0.03672 0.35911,-0.185701 0.52701,-0.465914 0.52701,-0.879538 0,-0.290233 -0.0538,-0.40848 -0.28494,-0.626015 -0.15672,-0.147506 -0.68776,-0.513183 -1.18009,-0.812616 -0.49233,-0.299432 -1.01342,-0.679126 -1.15797,-0.843763 -0.33342,-0.379742 -0.47193,-0.868371 -0.35838,-1.26428 0.1037,-0.361584 0.4617,-0.750979 0.89565,-0.974195 0.42968,-0.221012 1.13739,-0.215839 1.63955,0.01199 l 0.38672,0.175449 0.20623,-0.193748 c 0.14084,-0.132307 0.23473,-0.165253 0.2961,-0.103891 0.0529,0.05292 0.0795,0.447094 0.0646,0.958856 -0.0195,0.671108 -0.053,0.868998 -0.14707,0.868998 -0.0721,0 -0.1652,-0.170878 -0.22819,-0.418968 -0.0585,-0.230433 -0.20096,-0.52167 -0.31656,-0.647194 -0.27064,-0.293887 -0.83103,-0.551406 -1.20526,-0.553859 -0.21863,-0.0014 -0.3699,0.07427 -0.59179,0.296162 -0.16395,0.163948 -0.29809,0.358643 -0.29809,0.432656 0,0.493755 0.43615,0.932731 1.54929,1.559342 0.93247,0.524905 1.48276,1.06461 1.57234,1.542089 0.14279,0.761148 -0.45966,1.594655 -1.27972,1.770527 -0.52058,0.111644 -0.71978,0.110178 -1.14052,-0.0084 z m 9.83716,-0.122302 c -0.25024,-0.124699 -0.54402,-0.351552 -0.65284,-0.504119 l -0.19786,-0.277392 -0.0507,-2.104147 c -0.0279,-1.157281 -0.0575,-2.112638 -0.0657,-2.123015 -0.008,-0.01038 -0.13748,-0.158325 -0.28713,-0.328773 l -0.2721,-0.309905 h 0.93744 0.93744 l -0.23251,0.276322 -0.23251,0.276322 0.0274,2.112761 0.0274,2.112762 0.16682,0.246151 c 0.21047,0.31056 0.74414,0.58674 1.13376,0.58674 0.42191,0 1.02194,-0.229439 1.30218,-0.497928 0.13095,-0.125453 0.26277,-0.340458 0.29293,-0.477789 0.0302,-0.13733 0.0913,-0.272198 0.13577,-0.299707 0.0455,-0.02811 0.0809,-0.893186 0.0809,-1.974932 v -1.924916 l -0.28494,-0.173729 -0.28494,-0.173729 0.72819,-3.24e-4 0.72819,-3.25e-4 -0.24132,0.20758 -0.24133,0.207579 -0.0493,1.962322 -0.0493,1.962322 -0.23417,0.361192 c -0.30209,0.465969 -0.78236,0.859019 -1.20397,0.985337 -0.1837,0.05504 -0.58799,0.100073 -0.89841,0.100073 -0.43131,0 -0.67171,-0.05347 -1.01939,-0.226727 z m -40.18654,0.0485 c -0.1252,-0.02992 -0.51287,-0.487065 -1.07806,-1.271256 l -0.88257,-1.224539 -0.28365,-0.02747 -0.28364,-0.02747 v 1.045805 1.045804 l 0.18171,0.231006 0.18171,0.231005 -0.94885,-0.0035 -0.94884,-0.0035 0.23999,-0.130221 c 0.46865,-0.254293 0.50522,-0.45072 0.50522,-2.71354 0,-1.295433 -0.0349,-2.135662 -0.0933,-2.244702 -0.0513,-0.09585 -0.21153,-0.24619 -0.35607,-0.334089 l -0.26279,-0.159815 0.91761,-0.06255 c 1.03904,-0.07082 1.96299,0.0019 2.4455,0.192575 0.18021,0.0712 0.44652,0.264831 0.59179,0.430289 l 0.26414,0.300833 -6.2e-4,0.501068 c -7e-4,0.62677 -0.1937,0.944177 -0.76403,1.256657 -0.278,0.152315 -0.41699,0.285063 -0.41308,0.394528 0.007,0.192756 1.3351,1.954144 1.67544,2.221851 0.33534,0.263784 0.61856,0.310106 0.9448,0.154532 0.33562,-0.160046 0.34811,-0.184851 1.5942,-3.164904 0.50526,-1.208326 0.96065,-2.24757 1.01199,-2.309431 0.12929,-0.155775 0.24302,-0.140546 0.30583,0.04095 0.0292,0.08439 0.50104,1.277831 1.04851,2.652102 0.77658,1.949335 1.05373,2.551681 1.26063,2.739775 l 0.26521,0.2411 -0.9877,-0.0046 -0.98771,-0.0046 0.19727,-0.137604 c 0.27043,-0.188644 0.25568,-0.583453 -0.0438,-1.173243 -0.16596,-0.326797 -0.30941,-0.492916 -0.46028,-0.533019 -0.37656,-0.100091 -1.34871,-0.07822 -1.57811,0.0355 -0.23727,0.117619 -0.5702,0.715598 -0.66656,1.197208 -0.0493,0.246448 -0.0256,0.328101 0.13226,0.455951 l 0.19234,0.155742 -1.36052,0.02625 c -0.74828,0.01444 -1.44849,0.0052 -1.55601,-0.02047 z m 4.6627,-3.20252 c -0.2275,-0.557469 -0.44684,-1.01443 -0.48742,-1.015468 -0.0406,-10e-4 -0.26346,0.440357 -0.49529,0.980879 -0.23183,0.540523 -0.42151,0.997483 -0.42151,1.015468 0,0.01799 0.40902,0.0327 0.90893,0.0327 h 0.90892 z m -6.17549,0.233613 c 0.19667,-0.08932 0.44221,-0.269996 0.54565,-0.401496 0.58183,-0.739674 0.13987,-1.916211 -0.76543,-2.037636 -0.30014,-0.04026 -0.40177,-0.01329 -0.57965,0.153822 l -0.2157,0.202639 v 1.019257 c 0,0.675858 0.0354,1.054702 0.10521,1.124464 0.15014,0.150143 0.49601,0.126938 0.90992,-0.06105 z m 46.94189,2.966202 c -0.40987,-0.02718 -0.67396,-0.05677 -0.58685,-0.06575 0.0871,-0.009 0.2745,-0.143485 0.41644,-0.298891 l 0.25808,-0.282557 v -2.163009 -2.163009 l -0.24377,-0.250372 c -0.13407,-0.137705 -0.32147,-0.297368 -0.41644,-0.354808 -0.13919,-0.08418 0.0658,-0.105435 1.05704,-0.109591 1.42449,-0.006 2.58076,0.118801 3.01633,0.325494 0.42106,0.199805 0.96227,0.775088 1.17224,1.246048 0.25129,0.563619 0.29582,1.456893 0.10733,2.153218 -0.22148,0.818247 -0.60519,1.276722 -1.38366,1.653291 l -0.63505,0.307193 -1.00824,0.02608 c -0.55453,0.01435 -1.34358,0.0038 -1.75345,-0.02334 z m 2.64552,-0.412885 c 0.74393,-0.332502 1.12731,-0.913119 1.29467,-1.960751 0.13634,-0.853434 -0.0359,-1.63741 -0.49095,-2.233937 -0.35562,-0.46625 -0.90624,-0.747997 -1.56516,-0.800889 -0.43771,-0.03514 -0.61427,-0.01216 -0.78963,0.102731 l -0.22585,0.147985 0.026,2.326513 0.026,2.326513 0.21918,0.177437 c 0.17882,0.144762 0.30273,0.168823 0.67288,0.130657 0.24954,-0.02573 0.62434,-0.123046 0.8329,-0.216259 z m 15.08599,-1.181559 c -0.76566,-0.928236 -1.56271,-1.915601 -1.77122,-2.194144 -0.20851,-0.278543 -0.39057,-0.494988 -0.40457,-0.480988 -0.014,0.014 -0.0359,0.83369 -0.0487,1.821534 -0.0255,1.964858 0.0302,2.25929 0.44944,2.375425 0.12055,0.0334 -0.19507,0.06262 -0.70138,0.06494 l -0.92056,0.0042 0.32194,-0.133646 c 0.17707,-0.0735 0.35216,-0.199693 0.3891,-0.280418 0.0369,-0.08073 0.0831,-1.08718 0.10267,-2.236566 l 0.0355,-2.089793 -0.19673,-0.209412 c -0.10821,-0.115176 -0.36832,-0.274943 -0.57805,-0.355038 -0.20973,-0.0801 -0.38132,-0.175118 -0.38132,-0.211163 0,-0.09037 0.33332,-0.171411 0.70138,-0.170537 0.55432,0.0013 0.98404,0.277559 1.581,1.016297 1.42528,1.763813 2.56146,3.101197 2.63464,3.101197 0.046,0 0.0803,-0.745002 0.0803,-1.741632 v -1.741633 l -0.18171,-0.231005 c -0.0999,-0.127053 -0.24789,-0.237385 -0.32877,-0.245182 -0.0809,-0.0078 0.14883,-0.03889 0.51048,-0.06908 0.36165,-0.0302 0.73645,-0.03591 0.83289,-0.01269 l 0.17535,0.04221 -0.21918,0.0525 c -0.12055,0.02887 -0.26626,0.15014 -0.32378,0.269484 -0.0725,0.150303 -0.10949,1.004631 -0.12053,2.779903 -0.0127,2.04918 -0.039,2.562915 -0.13103,2.562915 -0.0633,0 -0.74154,-0.759466 -1.5072,-1.687701 z m -55.2217,1.416941 c 0.46079,-0.362458 0.49227,-0.527306 0.49227,-2.577745 v -1.89281 l -0.18036,-0.353541 c -0.10845,-0.212573 -0.28382,-0.397039 -0.43983,-0.462635 -0.1427,-0.06 -0.2325,-0.136054 -0.19955,-0.169004 0.0329,-0.03295 0.29991,-0.05976 0.59325,-0.05958 0.88153,5.44e-4 1.26683,0.345494 1.62565,1.455417 0.24707,0.764251 1.21842,2.752686 1.34428,2.751828 0.0583,-3.98e-4 0.50045,-0.893459 0.98265,-1.984581 0.56959,-1.288866 0.94441,-2.028343 1.06992,-2.11084 0.14709,-0.09668 0.33156,-0.112162 0.77311,-0.06488 l 0.57993,0.06211 -0.19774,0.09874 c -0.11287,0.05636 -0.2311,0.227628 -0.27549,0.399082 -0.0428,0.165189 -0.065,1.302993 -0.0493,2.528453 l 0.0284,2.228109 0.20698,0.167485 0.20698,0.167485 -0.99604,-1.75e-4 -0.99603,-1.75e-4 0.30686,-0.153291 0.30685,-0.153292 0.0236,-2.098466 c 0.0129,-1.154156 0.009,-2.081296 -0.01,-2.06031 -0.0183,0.02106 -0.31225,0.649751 -0.65317,1.397162 -1.27262,2.790008 -1.42182,3.081297 -1.56349,3.052408 -0.0828,-0.01688 -0.50085,-0.840014 -1.07062,-2.107991 -0.51414,-1.144162 -0.96438,-2.081165 -1.00055,-2.082229 -0.085,-0.0025 -0.0837,3.78133 0.001,3.906997 0.0354,0.05234 0.14331,0.13991 0.23975,0.194598 0.14098,0.07994 0.0227,0.09996 -0.60361,0.102098 l -0.77896,0.0027 0.23276,-0.183087 z m 7.44097,-0.02405 c 0.26381,-0.244492 0.382,-0.462446 0.79098,-1.458648 1.05032,-2.558364 1.67576,-3.997414 1.76176,-4.053524 0.0543,-0.03543 0.12215,-0.06502 0.15077,-0.06576 0.0286,-7.36e-4 0.17348,0.304417 0.32191,0.678122 1.44904,3.648252 1.88248,4.639005 2.12875,4.86584 l 0.26176,0.2411 h -0.98232 -0.98231 l 0.19187,-0.178761 c 0.10554,-0.09832 0.19188,-0.274731 0.19188,-0.392027 0,-0.117297 -0.0965,-0.431564 -0.21453,-0.698371 -0.25121,-0.568025 -0.42131,-0.659642 -1.22469,-0.659642 -0.80063,0 -1.05543,0.114616 -1.27011,0.571316 -0.20757,0.441581 -0.33393,1.094467 -0.21183,1.094467 0.0452,0 0.1587,0.05792 0.2523,0.128721 l 0.17019,0.12872 -0.77994,0.0028 -0.77994,0.0028 0.2235,-0.207135 z m 3.30901,-2.028076 c 0,-0.02387 -0.18272,-0.500002 -0.40605,-1.058082 -0.22333,-0.55808 -0.43883,-0.981912 -0.47889,-0.941849 -0.0656,0.06557 -0.86851,1.921649 -0.86851,2.007648 0,0.01962 0.39453,0.03567 0.87673,0.03567 0.4822,0 0.87672,-0.01953 0.87672,-0.04339 z m 5.0562,2.108259 c 0.15292,-0.06699 0.3206,-0.201319 0.37261,-0.298513 0.13403,-0.25043 0.12836,-4.489497 -0.006,-4.785255 -0.0555,-0.121893 -0.17389,-0.244766 -0.26301,-0.273052 -0.0891,-0.02829 -0.16205,-0.08822 -0.16205,-0.133195 0,-0.115078 3.7351,-0.106577 3.95104,0.009 0.13857,0.07416 0.16958,0.186412 0.16958,0.61371 0,0.370457 -0.0332,0.522952 -0.11389,0.522952 -0.0626,0 -0.1634,-0.13689 -0.2239,-0.304201 -0.0605,-0.16731 -0.21183,-0.3843 -0.33629,-0.4822 -0.18791,-0.147812 -0.35526,-0.178 -0.98676,-0.178 -0.51893,0 -0.81453,0.03957 -0.93066,0.124593 l -0.17019,0.124592 v 0.924436 c 0,1.168321 0.052,1.239255 0.88993,1.214422 0.32038,-0.0095 0.65381,-0.03989 0.74094,-0.06755 0.0871,-0.02766 0.20761,-0.18628 0.26771,-0.352498 0.0601,-0.166219 0.16054,-0.302216 0.22318,-0.302216 0.0854,0 0.1139,0.208234 0.1139,0.832892 0,0.673008 -0.0247,0.832891 -0.12843,0.832891 -0.0706,0 -0.1724,-0.08217 -0.22615,-0.182609 -0.12835,-0.239819 -0.92106,-0.604504 -1.31637,-0.605589 -0.17161,-4.74e-4 -0.38203,0.05034 -0.4676,0.11291 l -0.15558,0.113767 0.0292,1.150436 c 0.0161,0.63274 0.0619,1.182941 0.10173,1.22267 0.0399,0.03973 0.47989,0.06967 0.97782,0.06654 1.06039,-0.0067 1.23471,-0.0857 1.64505,-0.745793 0.26091,-0.419719 0.42019,-0.54337 0.41395,-0.321359 -0.002,0.06027 -0.0747,0.366033 -0.16235,0.679464 l -0.15926,0.569873 -2.1829,0.01934 -2.18291,0.01934 z m 11.22212,-8.76e-4 c 0.15292,-0.06652 0.32123,-0.201655 0.37403,-0.300303 0.0645,-0.120591 0.0883,-0.963203 0.0727,-2.571564 l -0.0233,-2.392182 -0.47377,-0.02697 c -0.26057,-0.01483 -0.5801,0.01707 -0.71005,0.0709 -0.12995,0.05383 -0.32851,0.26197 -0.44123,0.462537 l -0.20496,0.364667 -0.0599,-0.223842 c -0.0329,-0.123113 -0.0348,-0.378299 -0.004,-0.567079 l 0.0557,-0.343236 2.17952,-0.02347 c 1.53431,-0.01653 2.21517,0.0061 2.29997,0.07649 0.12667,0.105134 0.15609,0.506253 0.0627,0.855104 l -0.0553,0.206737 -0.11385,-0.270765 c -0.0626,-0.148921 -0.2443,-0.351268 -0.40375,-0.44966 -0.21785,-0.134437 -0.40972,-0.172995 -0.77209,-0.155154 l -0.4822,0.02374 -0.0255,2.279493 c -0.014,1.253721 -0.002,2.410598 0.0271,2.570837 0.0396,0.219485 0.12157,0.321355 0.33233,0.413015 l 0.27976,0.121669 h -1.09591 -1.09591 l 0.27803,-0.120943 z m 16.16062,0.06613 c 0.0723,-0.02632 0.24369,-0.151426 0.38081,-0.278015 l 0.24931,-0.230162 -0.0253,-2.235656 c -0.0139,-1.229611 -0.058,-2.303958 -0.0981,-2.387439 -0.0401,-0.08348 -0.18032,-0.210122 -0.31171,-0.281426 l -0.2389,-0.129644 1.05207,0.0069 c 0.57864,0.0038 0.93654,0.03178 0.79533,0.06224 -0.18712,0.04036 -0.27802,0.126714 -0.33516,0.3184 -0.0431,0.14466 -0.0784,1.261718 -0.0784,2.482349 -3e-5,1.856067 0.0222,2.253247 0.13573,2.42654 0.0747,0.113965 0.22551,0.224433 0.33519,0.245486 0.10969,0.02105 -0.29373,0.04054 -0.89648,0.0433 -0.60275,0.0028 -1.03673,-0.01651 -0.9644,-0.04284 z m 2.77249,-0.267077 c 0.2471,-0.255749 0.51635,-0.805858 1.21226,-2.476756 1.19833,-2.877229 1.24667,-2.980875 1.39028,-2.980875 0.0685,0 0.19511,0.187401 0.28137,0.416446 0.0863,0.229045 0.56681,1.42217 1.0679,2.651389 0.56681,1.390464 0.99859,2.326313 1.14273,2.476756 l 0.23167,0.241813 -1.00272,-0.0027 c -0.79315,-0.0021 -0.96608,-0.02345 -0.82738,-0.102098 0.37623,-0.213349 0.39701,-0.475427 0.0923,-1.164395 -0.14845,-0.335663 -0.28524,-0.511988 -0.44407,-0.572373 -0.32043,-0.121828 -1.3571,-0.106726 -1.62089,0.02361 -0.24324,0.120186 -0.70138,0.945676 -0.70138,1.263766 0,0.111903 0.0789,0.282366 0.17535,0.378807 l 0.17534,0.175345 h -0.74522 -0.74522 l 0.31766,-0.328773 z m 3.27693,-1.906438 c 0,-0.02387 -0.18273,-0.500002 -0.40605,-1.058082 -0.22333,-0.55808 -0.43736,-0.982397 -0.47561,-0.942927 -0.0764,0.07883 -0.72279,1.531839 -0.82172,1.847137 l -0.0619,0.197263 h 0.88263 c 0.48545,0 0.88264,-0.01953 0.88264,-0.04339 z m 10.21391,2.113705 c 0.14468,-0.06305 0.31299,-0.17481 0.37402,-0.248348 0.0849,-0.102339 0.10549,-0.707037 0.0876,-2.577862 l -0.0233,-2.444161 -0.55242,-0.02622 -0.55242,-0.02622 -0.30239,0.302387 c -0.16631,0.166313 -0.30239,0.365511 -0.30239,0.442664 0,0.07715 -0.0413,0.140276 -0.0919,0.140276 -0.057,0 -0.082,-0.207854 -0.0658,-0.547955 l 0.0261,-0.547955 h 2.2795 2.27949 l 0.0272,0.427224 c 0.0149,0.234974 0.002,0.491417 -0.0285,0.569874 -0.0429,0.110003 -0.0831,0.07784 -0.17563,-0.140561 -0.066,-0.155766 -0.25045,-0.363713 -0.40989,-0.462105 -0.21786,-0.134437 -0.40973,-0.172995 -0.7721,-0.155154 l -0.4822,0.02374 -0.0255,2.279493 c -0.014,1.253721 -0.002,2.410598 0.0271,2.570837 0.0396,0.219485 0.12157,0.321355 0.33233,0.413015 l 0.27976,0.121669 h -1.09591 -1.09591 z m 4.08571,-0.0792 0.2979,-0.200708 0.0233,-2.429921 0.0233,-2.429921 -0.28633,-0.174573 -0.28632,-0.174573 1.05208,0.01005 c 0.57864,0.0055 0.93653,0.03497 0.79532,0.06543 -0.18539,0.03999 -0.27983,0.128483 -0.33977,0.3184 -0.0457,0.14466 -0.0909,1.223639 -0.10052,2.39773 -0.0147,1.792917 0.005,2.178545 0.12059,2.408476 0.0765,0.151627 0.23587,0.300328 0.35727,0.333306 0.12055,0.03275 -0.26995,0.06347 -0.86778,0.06828 l -1.08696,0.0087 0.29791,-0.200708 z m 2.81711,-0.05498 0.28632,-0.255682 0.0264,-2.170253 c 0.0285,-2.345701 -0.006,-2.577569 -0.41109,-2.797963 l -0.22899,-0.124457 1.09591,-0.0034 1.09591,-0.0034 -0.30686,0.153291 -0.30685,0.153291 -0.0233,2.474744 -0.0233,2.474745 0.24246,0.06777 c 0.13335,0.03727 0.53836,0.06517 0.90001,0.062 0.74468,-0.0065 1.11304,-0.153479 1.41769,-0.565552 0.10637,-0.143864 0.22543,-0.261571 0.26458,-0.261571 0.14603,0 0.0657,0.597085 -0.11053,0.821068 l -0.18171,0.231006 h -2.01149 -2.0115 l 0.28633,-0.255683 z m -99.61683,-1.278591 c 0,-0.107155 0.14613,-0.131509 0.78906,-0.131509 0.64293,0 0.78905,0.02435 0.78905,0.131509 0,0.107156 -0.14612,0.13151 -0.78905,0.13151 -0.64293,0 -0.78906,-0.02435 -0.78906,-0.13151 z m 9.26725,0.07621 c -0.16801,-0.16801 0.007,-0.212171 0.74937,-0.189096 0.48418,0.01505 0.80236,0.06054 0.78959,0.112881 -0.0244,0.09994 -1.44488,0.170292 -1.53896,0.07621 z M 271.0927,46.646365 c -1.33649,-0.421738 -2.28935,-0.767224 -2.31318,-0.838707 -0.0639,-0.191757 0.3627,-0.08924 2.7364,0.657565 1.40666,0.442559 2.15629,0.719257 2.15629,0.795916 0,0.06463 -0.069,0.114106 -0.15342,0.109944 -0.0844,-0.0042 -1.17613,-0.330284 -2.42609,-0.724718 z m 9.68101,0.62683 c 0,-0.08723 0.69986,-0.344166 2.30141,-0.844889 1.26578,-0.395743 2.37374,-0.718612 2.46214,-0.717486 0.0884,0.0011 0.14474,0.05004 0.12518,0.108705 -0.0195,0.05866 -1.01902,0.418884 -2.22104,0.800492 -1.20202,0.381609 -2.29399,0.712892 -2.42659,0.736184 -0.17035,0.02992 -0.2411,0.0056 -0.2411,-0.08301 z m -7.39018,-1.300939 c -0.53618,-0.395554 -0.67589,-0.615492 -0.38561,-0.607041 0.17672,0.0051 1.29707,0.875756 1.24189,0.965049 -0.0285,0.04619 -0.0989,0.08339 -0.15633,0.08266 -0.0574,-7.28e-4 -0.37241,-0.199029 -0.69995,-0.44067 z m 6.8167,0.348487 c -0.0318,-0.05143 -0.044,-0.103208 -0.0271,-0.115067 0.0169,-0.01186 0.29903,-0.20994 0.627,-0.44018 0.34972,-0.245515 0.65111,-0.397585 0.72886,-0.367752 0.0729,0.02798 0.10954,0.08809 0.0814,0.133591 -0.0715,0.115717 -1.17863,0.882914 -1.2741,0.882914 -0.0431,0 -0.1043,-0.04208 -0.13609,-0.09351 z m -6.23157,-1.510774 c -0.39148,-0.491917 -1.05854,-1.320182 -1.48234,-1.840588 -0.58639,-0.720052 -0.74615,-0.970601 -0.66843,-1.048316 0.0777,-0.07772 0.13016,-0.07159 0.21944,0.02563 0.0645,0.07026 0.7564,0.907925 1.53748,1.861471 0.78108,0.953546 1.39637,1.77219 1.36731,1.81921 -0.0291,0.04702 -0.0998,0.08358 -0.15725,0.08124 -0.0574,-0.0023 -0.42473,-0.406728 -0.81621,-0.898646 z m 5.48996,0.826315 c 0,-0.09804 2.87749,-3.627282 3.03005,-3.716351 0.19529,-0.114025 0.24361,0.117088 0.071,0.339603 -0.0902,0.116281 -0.75581,0.93849 -1.47911,1.827131 -0.76807,0.943653 -1.37891,1.617891 -1.46852,1.620955 -0.0844,0.0029 -0.15342,-0.02922 -0.15342,-0.07134 z m -3.78545,-1.186954 c -0.12854,-0.357405 -0.21052,-0.673027 -0.18216,-0.701382 0.15402,-0.154022 0.292,0.01535 0.48842,0.599563 0.12041,0.358115 0.19631,0.673737 0.16866,0.701382 -0.14236,0.142356 -0.26274,-0.0096 -0.47492,-0.599563 z m 2.6457,0.50258 c 0,-0.08099 0.0842,-0.396608 0.18718,-0.701382 0.10753,-0.318354 0.2381,-0.554136 0.30685,-0.554136 0.16661,0 0.14974,0.227625 -0.0637,0.859704 -0.10865,0.321715 -0.23372,0.543061 -0.30686,0.543061 -0.0679,0 -0.12346,-0.06626 -0.12346,-0.147247 z m -1.22742,-2.307591 v -2.279493 h 0.13151 0.13151 v 2.279493 2.279492 h -0.13151 -0.13151 z"
       id="path9122"
       inkscape:connector-curvature="0" />
  </g>
</svg>
